<svg xmlns="http://www.w3.org/2000/svg" viewBox="0 0 124.17 74.76"><title>Asset 9</title><g id="Layer_2" data-name="Layer 2"><g id="Layer_1-2" data-name="Layer 1"><path d="M41.06,54.8c-.39.6-.7,1.13-1.06,1.62q-2.27,3.13-4.55,6.26a2.67,2.67,0,0,1-3.24,1A4.41,4.41,0,0,1,28.76,60a3.68,3.68,0,0,1,.17-1.57A58.65,58.65,0,0,1,33.37,47.7c1-1.89,2.13-3.7,3.26-5.51a3.09,3.09,0,0,1,3.71-.73A1.1,1.1,0,0,1,40.72,43c-.81,1.82-1.67,3.62-2.44,5.46-1,2.42-2,4.87-2.92,7.31A10.81,10.81,0,0,0,35,57.15l.19.12a5.52,5.52,0,0,0,.79-.64c.9-1,1.82-2,2.67-3.05,1.22-1.51,2.43-3,3.55-4.59a25.82,25.82,0,0,0,1.51-2.79,27.11,27.11,0,0,1,5.8-7.68,5.17,5.17,0,0,1,2.63-1.45,5.86,5.86,0,0,1,4.94,1.52,1.6,1.6,0,0,1,.54,1.79,15.6,15.6,0,0,1-1,2.5,13.39,13.39,0,0,1-4.4,4.76,3.45,3.45,0,0,1-.7.33,1,1,0,0,1-.39,0c0-.12,0-.28.09-.37a16.52,16.52,0,0,0,2.37-5.36A15.83,15.83,0,0,0,54,40.28a1,1,0,0,0-.12-.41c-.14,0-.31,0-.41.13a8.53,8.53,0,0,0-1.08,1,30.38,30.38,0,0,0-6,10.69,7.41,7.41,0,0,0-.25,2.44,1.52,1.52,0,0,0,2,1.43,7.26,7.26,0,0,0,2.15-1,26.65,26.65,0,0,0,5-5c.31-.37.6-.75.91-1.11A14.64,14.64,0,0,0,58.84,44a15.28,15.28,0,0,1,3.4-5.59,3.93,3.93,0,0,1,.93-.75,4.22,4.22,0,0,0,1.48-1.46,11,11,0,0,1,3-3.11,4.6,4.6,0,0,1,6.66,1.46,3.88,3.88,0,0,1,.37,2.9c-.36,1.65-.84,3.27-1.27,4.9a.8.8,0,0,0,0,.42,10.65,10.65,0,0,0,.83-1q1.94-2.7,3.84-5.41c1.07-1.54,2.13-3.08,3.16-4.64a5.13,5.13,0,0,0,.6-1.33A9.25,9.25,0,0,1,83.75,27a1.74,1.74,0,0,1,2-.42A1.53,1.53,0,0,1,87,28a2.75,2.75,0,0,1-.38,1.29c-.28.54-.7,1-1,1.53a1,1,0,0,0-.13.68A5.85,5.85,0,0,0,86,32.88c.81,1.45,1.66,2.86,2.55,4.39a14.83,14.83,0,0,0,1-1.63c1.1-2.4,2.17-4.82,3.24-7.22.08-.17.17-.33.29-.59l-.53.15-2.45.81c-.55.18-.9-.06-.79-.64A3,3,0,0,1,89.81,27a4.74,4.74,0,0,1,1.9-1.56c1-.49,2.1-.95,3.13-1.45a1.18,1.18,0,0,0,.49-.45c1.5-2.61,3-5.21,4.46-7.85a3,3,0,0,1,2.53-1.48,2.61,2.61,0,0,1,1,.08.81.81,0,0,1,.57,1.3q-1.31,2.67-2.6,5.34c-.06.12-.1.24-.17.41.55-.12,1-.2,1.53-.34a.84.84,0,0,1,.94.32,3.94,3.94,0,0,1,1,2.21c.06.54-.08.68-.62.82-1.52.4-3,.8-4.54,1.22a.75.75,0,0,0-.44.33,105.72,105.72,0,0,0-4.71,11.59,12.92,12.92,0,0,0-.38,1.85,2.44,2.44,0,0,0,.12.69,2.05,2.05,0,0,0,.65-.36c.76-.85,1.55-1.71,2.24-2.63,1.6-2.15,3.2-4.32,4.72-6.54.93-1.35,1.65-2.84,2.56-4.2a24.63,24.63,0,0,1,6.29-6.74,7.92,7.92,0,0,1,3.19-1.49,3.37,3.37,0,0,1,3.28,1.13.57.57,0,0,0,.43.15,4.75,4.75,0,0,1,2.32.48c.75.4.93.67.48,1.48a96.29,96.29,0,0,0-4.92,9.79c-.18.44-.33.89-.47,1.34a3.55,3.55,0,0,0,0,.57l.12.08a5.15,5.15,0,0,0,.62-.49c1.49-1.79,3-3.58,4.46-5.4.86-1.08,1.61-2.25,2.45-3.35a8.89,8.89,0,0,1,1.23-1.3c.33-.29.6-.13.55.31a3.68,3.68,0,0,1-.34,1.32c-.75,1.45-1.52,2.88-2.35,4.28a60.48,60.48,0,0,1-5.63,8.14,15.59,15.59,0,0,1-1.47,1.46,2.53,2.53,0,0,1-3.12.29,3.86,3.86,0,0,1-2-2.76c0-.1,0-.19-.11-.4l-.55,1a22.66,22.66,0,0,1-2.71,4.27,2.61,2.61,0,0,1-3.23.83A4.65,4.65,0,0,1,99.9,39a10.68,10.68,0,0,1-.5-1.66c-.05.08-.15.21-.23.34a44.4,44.4,0,0,1-4.37,5.93c-.34.37-.73.71-1.11,1a2.56,2.56,0,0,1-2.79.46,4.08,4.08,0,0,1-2.75-3.08l-.42.58A28.88,28.88,0,0,1,83.11,48a7.52,7.52,0,0,1-4.26,2,4.07,4.07,0,0,1-4.67-3.23C74,46.21,74,45.61,73.9,45a1.5,1.5,0,0,0-.24.18,6.79,6.79,0,0,1-.72.7c-1.68,1.19-2.69,3-4,4.5a15.28,15.28,0,0,1-4.82,4,4.88,4.88,0,0,1-6.7-3.16c-.06-.25-.08-.5-.14-.87L57,50.8a33.68,33.68,0,0,1-5.24,6.41,20.73,20.73,0,0,1-2.9,2.09,3.88,3.88,0,0,1-3.29.32,7.48,7.48,0,0,1-2.64-1.37A4.65,4.65,0,0,1,41.06,54.8Zm29.4-18.32c0-.16,0-.4-.08-.62-.1-.61-.46-.82-1-.55a3.1,3.1,0,0,0-.94.65,11.9,11.9,0,0,0-3.36,7.53,3.42,3.42,0,0,0,.29,1.43,1.34,1.34,0,0,0,1.31.77,1,1,0,0,0,1.1-.7c.41-.94.91-1.85,1.29-2.8A18.27,18.27,0,0,0,70.46,36.48Zm45.14-15.2-.48.09a6.93,6.93,0,0,0-3.09,2,31.43,31.43,0,0,0-6.46,10,9.32,9.32,0,0,0-.48,1.58,2.36,2.36,0,0,0,.12.72c.22-.09.51-.12.66-.28A11.06,11.06,0,0,0,107.11,34q3-4.31,5.88-8.64C113.87,24.07,114.69,22.72,115.6,21.28ZM81.54,35l-.18.21c-1.06,1.54-2.13,3.07-3.19,4.62a1.07,1.07,0,0,0-.16.32,4.19,4.19,0,0,0,.62,3.6,2.31,2.31,0,0,0,4.19-1.26,3.85,3.85,0,0,0,0-1c-.26-1.39-.54-2.77-.81-4.15C81.82,36.61,81.7,35.85,81.54,35ZM65.7,48.49a5,5,0,0,1-3.28-3,8,8,0,0,0-1.12,4.84c.08.75.53,1,1.27.81A6.17,6.17,0,0,0,65.7,48.49Z" style="fill:#bcbcbc"/><path d="M13.27,60.81c-.4.16-.75.29-1.08.45a.67.67,0,0,0-.31.31A49.93,49.93,0,0,0,8.72,70.1a16,16,0,0,0-.26,2.69c0,.38.09.69.63.56.32-.08.32.22.25.42a1.42,1.42,0,0,1-1.21.94,5.25,5.25,0,0,1-4.85-2.26A3.72,3.72,0,0,1,3,69.77a30.55,30.55,0,0,1,2.31-6.35c.13-.3.27-.61.41-.91-.4-.16-.79-.27-1.14-.45a1.44,1.44,0,0,1-.8-1.73c.12-.54.45-.69.92-.42a2.71,2.71,0,0,0,2.23,0c.14,0,.24-.26.32-.42A180.19,180.19,0,0,1,20.36,38.46c.47-.66,1-1.3,1.5-1.93a2.62,2.62,0,0,1,2.94-.62,2.11,2.11,0,0,1,.79.78.81.81,0,0,1-.05.71,89.36,89.36,0,0,0-6.38,10c-1.32,2.34-2.55,4.73-3.85,7.08a.67.67,0,0,0,.2,1c.69-.54,1.39-1.07,2.07-1.64A68.64,68.64,0,0,0,30.92,39.31,17,17,0,0,0,33.51,34a6.82,6.82,0,0,0,.15-1.69,1.14,1.14,0,0,0-.91-1.13,5.39,5.39,0,0,0-2.9.14,29.57,29.57,0,0,0-8,3.71A52.75,52.75,0,0,0,7.81,48a29.42,29.42,0,0,0-2,3.48,3.13,3.13,0,0,0-.32,1c-.09.53.2.76.71.6A6.56,6.56,0,0,0,8.56,51.5l.7-.64.17.07a8.71,8.71,0,0,1-.18,1.45A7.13,7.13,0,0,1,5.15,57a2.54,2.54,0,0,1-2.91-.55A6.75,6.75,0,0,1,0,51.94,6.81,6.81,0,0,1,1.1,48.09a26.59,26.59,0,0,1,4.56-6,58.51,58.51,0,0,1,15.7-11.57,26.67,26.67,0,0,1,7-2.52,7.87,7.87,0,0,1,8.72,4.29,5.52,5.52,0,0,1,.26,4.07,22.19,22.19,0,0,1-3.62,7.2A57.71,57.71,0,0,1,20.2,56.75c-.81.58-1.65,1.13-2.52,1.72.64.77,1.27,1.55,1.92,2.31a31.76,31.76,0,0,0,5.61,5.38,7.85,7.85,0,0,0,3.63,1.58,1.78,1.78,0,0,0,.76-.08q8.77-2.79,17.53-5.61l32-10.36,37.16-12.07A2.17,2.17,0,0,0,117.92,38c.06-.28.22-.58.55-.48.15.05.28.35.33.57a1.6,1.6,0,0,1-.36,1.38c-.83,1-1.67,2-2.58,2.93a26.76,26.76,0,0,1-2.09,1.74,11.5,11.5,0,0,1-4,1.75L86.07,53.56,56,63.29,28,72.36c-.75.24-1.52.41-2.24.72a3.67,3.67,0,0,1-3.42-.37,13.5,13.5,0,0,1-4.1-3.79,47,47,0,0,1-4.64-7.57C13.47,61.17,13.38,61,13.27,60.81Z" style="fill:#bcbcbc"/><path d="M66.11,5.85l-.6.63L67,8l1.52-1.55L68,5.88l4.54-3.65c.06.86.12,1.62.17,2.38q.21,3.19.4,6.39c0,.63,0,.72-.66.91a42.15,42.15,0,0,1-10.2,1.86,35,35,0,0,1-13.14-1.59c-.32-.1-.63-.23-1-.33a.66.66,0,0,1-.48-.78q.39-3.33.77-6.64c.09-.71.17-1.43.27-2.27l4.07,3.56-.75.8L53.6,8l1.62-1.61-.86-.57,6-5.85C62.3,2,64.2,3.9,66.11,5.85Z" style="fill:#bcbcbc"/><path d="M58.66,30v-.58c0-2.48,0-4.95,0-7.43a.6.6,0,0,1,.36-.59,2.55,2.55,0,0,1,3.13,0c.25.17.39.29.39.62,0,2.46,0,4.92,0,7.38V30a1.72,1.72,0,0,0,.27-.13,61.77,61.77,0,0,0,6.63-5.79c.18-.18.34-.39.52-.58a3.83,3.83,0,0,0,1.11-2.95c-.08-2.3,0-4.61,0-6.95L73,12.91v.54c0,2.62,0,5.23,0,7.84a2.45,2.45,0,0,1-.43,1.53A47,47,0,0,1,69.34,27c-2.77,3-5.66,5.9-8.49,8.84L60.7,36,58,33.44c-2.69-2.58-5.36-5.17-7.78-8l-.12-.14c-1.87-2.23-1.87-2.24-1.87-5.14V12.91c.63.22,1.21.41,1.77.65.1,0,.16.29.16.45,0,2.58,0,5.16,0,7.75a2,2,0,0,0,.55,1.51c.92.92,1.81,1.88,2.81,2.72,1.56,1.32,3.19,2.55,4.79,3.81C58.38,29.87,58.47,29.92,58.66,30Z" style="fill:#bcbcbc"/><path d="M43.88,30.48a12.81,12.81,0,0,1,1.65.4,1.67,1.67,0,0,1,.91,2.41,9.66,9.66,0,0,1-4.65,5.1c-1.54.73-2.69.08-2.88-1.61a6.55,6.55,0,0,1,1.57-5.05,4.11,4.11,0,0,1,3-1.15c.14,0,.28,0,.42,0Z" style="fill:#bcbcbc"/></g></g></svg>