<svg xmlns="http://www.w3.org/2000/svg" viewBox="0 0 140.84 30.3"><title>Asset 4</title><g id="Layer_2" data-name="Layer 2"><g id="Layer_1-2" data-name="Layer 1"><path d="M24.4,15.07a15.07,15.07,0,1,1,30.13.24,15.07,15.07,0,1,1-30.13-.24Zm23.45.08a8.39,8.39,0,1,0-8.47,8.48A8.5,8.5,0,0,0,47.85,15.15Z" style="fill:#bcbcbc"/><path d="M75.39,14.81c.92.58,1.9,1.13,2.79,1.79,3.43,2.54,3.22,7.18,1,9.91a9.29,9.29,0,0,1-7.43,3.37c-3.4.06-6.8,0-10.21,0-.82,0-1-.25-1-1.21V1.61c0-.12,0-.24,0-.36A.77.77,0,0,1,61.34.4c3.66,0,7.32-.05,11,.12a8.24,8.24,0,0,1,7.54,6.05c.67,2.67-.33,4.78-2.26,6.54C76.9,13.74,76.11,14.26,75.39,14.81ZM67,23.89c1.37,0,2.68,0,4,0a3,3,0,0,0,2.73-2.22,3.1,3.1,0,0,0-2.82-3.84,36.33,36.33,0,0,0-3.91,0Zm0-11.58c1.19,0,2.31,0,3.43,0a2.93,2.93,0,0,0,2.78-2.83,2.7,2.7,0,0,0-2.37-3,35.06,35.06,0,0,0-3.84,0Z" style="fill:#bcbcbc"/><path d="M14.89,14.79c1,.62,2,1.19,2.9,1.88,3.39,2.59,3.14,7.26.75,10a9.41,9.41,0,0,1-7.33,3.2c-3.38,0-6.77,0-10.15,0-.8,0-1.06-.26-1.06-1.07V1.46C0,.65.26.4,1.07.4c3.18,0,6.37,0,9.55,0a9.42,9.42,0,0,1,6.83,2.73c3.09,3.08,2.78,7.47-.7,10.31C16.14,13.94,15.48,14.36,14.89,14.79ZM6.54,23.9h3.59a4.17,4.17,0,0,0,.71,0,3,3,0,0,0,2.34-4,3.26,3.26,0,0,0-3.07-2.08c-1.08-.08-2.16,0-3.24,0a1.3,1.3,0,0,0-.33.07Zm0-17.4v5.81c1.19,0,2.33,0,3.46,0a2.93,2.93,0,0,0,2.72-2.71,2.68,2.68,0,0,0-2.3-3.06A33.41,33.41,0,0,0,6.56,6.5Z" style="fill:#bcbcbc"/><path d="M86.6,10.48v-9C86.6.65,86.85.4,87.73.4h4.42c.95,0,1.15.19,1.15,1.13,0,5.43,0,10.86,0,16.29a5.93,5.93,0,0,0,1.16,3.87,5.22,5.22,0,0,0,9.27-2.92c0-.33,0-.66,0-1V1.55c0-.92.23-1.15,1.15-1.15h4.49c.82,0,1.1.27,1.1,1.09,0,5.67,0,11.33,0,17a12,12,0,0,1-23.78,1.72,12.27,12.27,0,0,1-.1-1.82C86.59,15.75,86.6,13.12,86.6,10.48Z" style="fill:#bcbcbc"/><path d="M128,21l-3.78,6c-.51.8-1,1.59-1.51,2.4a1.12,1.12,0,0,1-1,.56c-1.81,0-3.62,0-5.43,0a1.27,1.27,0,0,1-.93-.44c-.12-.2,0-.68.19-1,1.68-2.68,3.39-5.34,5.07-8,1.12-1.78,2.21-3.58,3.33-5.35a.65.65,0,0,0,0-.83L116,2l-.15-.25c-.44-.73-.16-1.29.7-1.31s1.7,0,2.54,0c1,0,2.09,0,3.13,0a1.27,1.27,0,0,1,1.21.67c1.42,2.34,2.86,4.65,4.3,7l.38.58,1.31-2.06c1.17-1.86,2.35-3.72,3.51-5.59a1.08,1.08,0,0,1,1-.57c1.91,0,3.82,0,5.72,0,1,0,1.26.56.72,1.38q-4,6.22-8.06,12.42a.81.81,0,0,0,0,1q4.19,6.6,8.31,13.22a1.38,1.38,0,0,1,.19,1.06c-.11.23-.62.36-1,.37-1.71,0-3.42,0-5.13,0a1.36,1.36,0,0,1-1.31-.69c-1.62-2.54-3.27-5.05-4.91-7.57Z" style="fill:#bcbcbc"/></g></g></svg>