<svg xmlns="http://www.w3.org/2000/svg" viewBox="0 0 16.55 16.55"><title>close</title><g id="Layer_2" data-name="Layer 2"><g id="Layer_2-2" data-name="Layer 2"><path d="M16.38,13.2l-13-13A.46.46,0,0,0,2.7.11L.11,2.7a.46.46,0,0,0,.06.65L3.85,7l.77.76,8.58,8.58a.46.46,0,0,0,.65.06l2.59-2.59A.46.46,0,0,0,16.38,13.2Z" style="fill:#304595"/><path d="M3.35,16.38l13-13a.46.46,0,0,0,.06-.65L13.85.11a.46.46,0,0,0-.65.06L9.51,3.85l-.76.77L.17,13.2a.46.46,0,0,0-.06.65L2.7,16.44A.46.46,0,0,0,3.35,16.38Z" style="fill:#304595"/></g></g></svg>