<svg xmlns="http://www.w3.org/2000/svg" viewBox="0 0 21.62 21.62"><title>instagram-icon</title><g id="Layer_2" data-name="Layer 2"><g id="Layer_2-2" data-name="Layer 2"><circle cx="10.81" cy="10.81" r="10.81" style="fill:#fff"/><path d="M7.87,15.61A2.37,2.37,0,0,1,6.08,14a6,6,0,0,1-.19-.6V8.2a3,3,0,0,1,1-1.68,3.45,3.45,0,0,1,1.37-.64H13.4l.29.09A2.68,2.68,0,0,1,15.6,7.79c.05.14.08.28.12.41v5.24a3.64,3.64,0,0,1-.7,1.37,3.15,3.15,0,0,1-1.62.9A50.47,50.47,0,0,1,7.87,15.61Zm2.92-.78h2.27a1.81,1.81,0,0,0,1.79-1.74c0-1.51,0-3,0-4.54a1.79,1.79,0,0,0-1.78-1.79q-2.27,0-4.53,0A1.8,1.8,0,0,0,6.77,8.49q0,2.28,0,4.56a1.8,1.8,0,0,0,1.81,1.78Z" style="fill:#0c233f"/><path d="M10.8,13.32a2.53,2.53,0,0,1,0-5.06,2.53,2.53,0,1,1,0,5.06Zm0-.87a1.66,1.66,0,1,0-1.64-1.71A1.65,1.65,0,0,0,10.79,12.45Z" style="fill:#0c233f"/><path d="M13.46,8.79a.62.62,0,0,1-.64-.63.64.64,0,0,1,.62-.64.66.66,0,0,1,.65.64A.63.63,0,0,1,13.46,8.79Z" style="fill:#0c233f"/></g></g></svg>