<svg xmlns="http://www.w3.org/2000/svg" viewBox="0 0 21.62 21.62"><title>linkedin-icon</title><g id="Layer_2" data-name="Layer 2"><g id="Layer_2-2" data-name="Layer 2"><path d="M10.81,0A10.81,10.81,0,1,0,21.62,10.81,10.81,10.81,0,0,0,10.81,0ZM8.23,15.35H6V8.77H8.23ZM7.14,7.87h0a1.14,1.14,0,1,1,0-2.28,1.14,1.14,0,1,1,0,2.28Zm9,7.48H13.94V11.83c0-.89-.32-1.49-1.11-1.49a1.18,1.18,0,0,0-1.12.8,1.46,1.46,0,0,0-.08.54v3.67H9.44s0-6,0-6.58h2.19V9.7a2.2,2.2,0,0,1,2-1.09c1.44,0,2.52.94,2.52,3Z" style="fill:#fff"/></g></g></svg>