<svg xmlns="http://www.w3.org/2000/svg" viewBox="0 0 40.14 40.14"><title>logo-foremost</title><g id="Layer_2" data-name="Layer 2"><g id="Layer_1-2" data-name="Layer 1"><path d="M28.15,13.38H11.74v4.8H28.15a1,1,0,0,0,1-1V14.41A1,1,0,0,0,28.15,13.38Z" style="fill:#304595"/><path d="M24.72,23.67h-13v4.81h13a1.06,1.06,0,0,0,1-1V24.7A1.06,1.06,0,0,0,24.72,23.67Z" style="fill:#304595"/><path d="M20.07,40.14A20.07,20.07,0,1,1,40.14,20.07,20.09,20.09,0,0,1,20.07,40.14Zm0-37.77a17.7,17.7,0,1,0,17.7,17.7A17.72,17.72,0,0,0,20.07,2.37Z" style="fill:#304595"/></g></g></svg>