<svg xmlns="http://www.w3.org/2000/svg" xmlns:xlink="http://www.w3.org/1999/xlink" viewBox="0 0 454.85 454.85"><defs><clipPath id="clip-path" transform="translate(0 -48.75)"><rect x="98.79" width="466.3" height="414.37" style="fill:none"/></clipPath></defs><title>logo-outline-menu</title><g id="Layer_2" data-name="Layer 2"><g id="Layer_1-2" data-name="Layer 1"><g style="clip-path:url(#clip-path)"><path d="M277.18,168.49,109.85,248.71l23.44,48.88,52.28-25.07,9.91-4.75,105.13-50.4a11.65,11.65,0,0,0,5.46-15.51l-13.38-27.92A11.63,11.63,0,0,0,277.18,168.49Z" transform="translate(0 -48.75)" style="fill:none;stroke:#304595;stroke-miterlimit:10"/><path d="M292.51,290.11l-80.09,38.4,0,0-52.28,25.07,23.49,49,52.29-25.06-.05-.1L315.94,339a11.92,11.92,0,0,0,5.45-15.5L308,295.57A11.94,11.94,0,0,0,292.51,290.11Z" transform="translate(0 -48.75)" style="fill:none;stroke:#304595;stroke-miterlimit:10"/><path d="M325.54,480.81C212.7,534.91,76.89,487.12,22.79,374.28S16.48,125.63,129.32,71.53,378,65.22,432.06,178.06,438.37,426.71,325.54,480.81ZM140.89,95.68C41.37,143.4-.78,263.18,46.94,362.7s167.49,141.67,267,94,141.67-167.5,94-267S240.41,48,140.89,95.68Z" transform="translate(0 -48.75)" style="fill:none;stroke:#304595;stroke-miterlimit:10"/></g></g></g></svg>