<svg xmlns="http://www.w3.org/2000/svg" viewBox="0 0 132.58 60.52"><title>Asset 7</title><g id="Layer_2" data-name="Layer 2"><g id="Layer_1-2" data-name="Layer 1"><path d="M54.85,22H51.63V20.8h7.81V22H56.23V32.88H54.85Z" style="fill:#bcbcbc"/><path d="M56.23,33.32H54.85a.44.44,0,0,1-.44-.44V22.46H51.63a.44.44,0,0,1-.44-.44V20.8a.44.44,0,0,1,.44-.44h7.81a.44.44,0,0,1,.44.44V22a.44.44,0,0,1-.44.44H56.67V32.88A.44.44,0,0,1,56.23,33.32Zm-.94-.88h.5V22a.44.44,0,0,1,.44-.44H59v-.34H52.07v.34h2.78a.44.44,0,0,1,.44.44Z" style="fill:#bcbcbc"/><path d="M65.16,20.8c2.52,0,4,1,4,3.39a3.08,3.08,0,0,1-2.72,3.3v.07a3.42,3.42,0,0,1,1.46,1.55l2.23,3.77H68.52L66.33,29a2,2,0,0,0-1.88-1.15h-1v5H62.13V20.8ZM63.5,26.68h1.56c1.67,0,2.72-.66,2.72-2.33S66.8,22,65,22H63.5Z" style="fill:#bcbcbc"/><path d="M70.16,33.32H68.52a.43.43,0,0,1-.38-.22L66,29.24a1.56,1.56,0,0,0-1.5-.93h-.51v4.57a.44.44,0,0,1-.44.44H62.13a.44.44,0,0,1-.44-.44V20.8a.44.44,0,0,1,.44-.44h3c3.7,0,4.47,2.08,4.47,3.83a3.54,3.54,0,0,1-2.2,3.51,5.47,5.47,0,0,1,.88,1.18l2.23,3.78a.43.43,0,0,1,0,.44A.43.43,0,0,1,70.16,33.32Zm-1.38-.88h.61l-1.83-3.11A3.06,3.06,0,0,0,66.28,28a.43.43,0,0,1-.25-.39v-.07a.44.44,0,0,1,.39-.44,2.67,2.67,0,0,0,2.33-2.86c0-2-1.14-3-3.59-3H62.57v11.2h.49V27.87a.44.44,0,0,1,.44-.44h1a2.42,2.42,0,0,1,2.26,1.37Zm-3.72-5.32H63.5a.44.44,0,0,1-.44-.44V22a.44.44,0,0,1,.44-.44H65c2.19,0,3.25.91,3.25,2.77C68.22,25.61,67.67,27.12,65.06,27.12Zm-1.12-.88h1.12c2,0,2.28-1,2.28-1.89,0-1.13-.4-1.89-2.37-1.89h-1Z" style="fill:#bcbcbc"/><path d="M73.42,20.8h1.37V32.88H73.42Z" style="fill:#bcbcbc"/><path d="M74.79,33.32H73.42a.45.45,0,0,1-.45-.44V20.8a.45.45,0,0,1,.45-.44h1.37a.44.44,0,0,1,.44.44V32.88A.44.44,0,0,1,74.79,33.32Zm-.93-.88h.49V21.24h-.49Z" style="fill:#bcbcbc"/><path d="M79.07,32.88V20.8h6.38V22h-5v4.45h4.38v1.22H80.46v5.19Z" style="fill:#bcbcbc"/><path d="M80.46,33.32H79.07a.44.44,0,0,1-.44-.44V20.8a.44.44,0,0,1,.44-.44h6.38a.44.44,0,0,1,.44.44V22a.44.44,0,0,1-.44.44H80.9V26h3.94a.44.44,0,0,1,.44.44v1.22a.43.43,0,0,1-.44.44H80.9v4.75A.44.44,0,0,1,80.46,33.32Zm-.95-.88H80V27.69a.44.44,0,0,1,.44-.44H84.4v-.34H80.46a.44.44,0,0,1-.44-.44V22a.44.44,0,0,1,.44-.44H85v-.34h-5.5Z" style="fill:#bcbcbc"/><path d="M92.32,20.8l3.92,12.08H94.79l-1.12-3.51H88.81l-1.12,3.51H86.27L90.19,20.8ZM89.2,28.14h4.07L92,24.07c-.28-.88-.48-1.58-.71-2.32H91.2c-.2.72-.43,1.44-.69,2.29Z" style="fill:#bcbcbc"/><path d="M96.24,33.32H94.79a.44.44,0,0,1-.42-.31l-1-3.2H89.13l-1,3.2a.44.44,0,0,1-.42.31H86.27a.44.44,0,0,1-.35-.18.42.42,0,0,1-.07-.39l3.92-12.09a.43.43,0,0,1,.42-.3h2.13a.44.44,0,0,1,.42.3l3.91,12.09a.42.42,0,0,1-.06.39A.44.44,0,0,1,96.24,33.32Zm-1.13-.88h.52L92,21.24H90.51l-3.63,11.2h.48l1-3.21a.43.43,0,0,1,.42-.3h4.86a.44.44,0,0,1,.42.3Zm-1.84-3.86H89.2a.44.44,0,0,1-.35-.18.42.42,0,0,1-.07-.39l1.42-4.44c.21-.7.4-1.32.58-1.94a.44.44,0,0,1,.42-.32h.07a.42.42,0,0,1,.42.31l.19.62c.16.53.32,1.07.52,1.7L93.69,28a.45.45,0,0,1-.06.39A.47.47,0,0,1,93.27,28.58Zm-3.46-.88h2.86l-1.11-3.49c-.12-.37-.22-.71-.32-1-.07.21-.13.43-.2.66l-.11.34Z" style="fill:#bcbcbc"/><path d="M98.86,20.8H102c3.63,0,5.27,1.88,5.27,5.93s-1.59,6.15-5.29,6.15H98.86Zm1.37,10.86H102c2.66,0,3.9-1.31,3.9-4.78s-1.42-4.86-4-4.86h-1.68Z" style="fill:#bcbcbc"/><path d="M102,33.32H98.86a.45.45,0,0,1-.45-.44V20.8a.45.45,0,0,1,.45-.44H102c3.84,0,5.71,2.08,5.71,6.37S105.81,33.32,102,33.32Zm-2.71-.88H102c3.31,0,4.85-1.81,4.85-5.71s-1.45-5.49-4.83-5.49H99.3ZM102,32.1h-1.76a.44.44,0,0,1-.44-.44V22a.44.44,0,0,1,.44-.44h1.68c3,0,4.42,1.69,4.42,5.3S105,32.1,102,32.1Zm-1.32-.88H102c2.08,0,3.46-.74,3.46-4.34,0-3.14-1-4.42-3.54-4.42h-1.24Z" style="fill:#bcbcbc"/><path d="M115.06,20.8,119,32.88h-1.45l-1.12-3.51h-4.86l-1.12,3.51H109l3.91-12.08Zm-3.12,7.34H116l-1.29-4.07c-.27-.88-.48-1.58-.7-2.32h-.07c-.21.72-.43,1.44-.69,2.29Z" style="fill:#bcbcbc"/><path d="M119,33.32h-1.45a.44.44,0,0,1-.42-.31l-1-3.2h-4.22l-1,3.2a.44.44,0,0,1-.42.31H109a.45.45,0,0,1-.36-.18.42.42,0,0,1-.06-.39l3.91-12.09a.44.44,0,0,1,.42-.3h2.14a.44.44,0,0,1,.42.3l3.91,12.09a.45.45,0,0,1-.06.39A.47.47,0,0,1,119,33.32Zm-1.13-.88h.52l-3.62-11.2h-1.5l-3.63,11.2h.49l1-3.21a.44.44,0,0,1,.42-.3h4.86a.44.44,0,0,1,.42.3ZM116,28.58h-4.06a.45.45,0,0,1-.36-.18.42.42,0,0,1-.06-.39l1.41-4.44c.21-.7.41-1.32.58-1.94a.45.45,0,0,1,.43-.32H114a.44.44,0,0,1,.42.31l.18.62c.16.53.32,1.07.52,1.7L116.42,28a.42.42,0,0,1-.06.39A.44.44,0,0,1,116,28.58Zm-3.46-.88h2.86l-1.11-3.49c-.11-.37-.22-.71-.32-1-.06.21-.13.43-.2.66l-.1.34Z" style="fill:#bcbcbc"/><path d="M57.61,36.81l3.91,12.08H60.07L59,45.37H54.09L53,48.89H51.56l3.91-12.08Zm-3.12,7.34h4.07l-1.29-4.07c-.28-.88-.49-1.59-.71-2.33h-.07c-.21.73-.43,1.45-.69,2.3Z" style="fill:#bcbcbc"/><path d="M71.16,37.67l-.9,1a3.46,3.46,0,0,0-2.52-.83c-1.75,0-3.68.93-3.68,4.88,0,3.64,1.29,5.08,3.65,5.08a4.11,4.11,0,0,0,2.12-.48V42.75h1.38V48a5.7,5.7,0,0,1-3.79,1.09c-3.12,0-4.78-2.05-4.78-6.17,0-4.36,2.31-6.26,5.19-6.26A4.57,4.57,0,0,1,71.16,37.67Z" style="fill:#bcbcbc"/><path d="M77.21,36.81c2.51,0,4,1,4,3.39a3.08,3.08,0,0,1-2.72,3.29v.07A3.47,3.47,0,0,1,80,45.11l2.23,3.78H80.57L78.38,45a2,2,0,0,0-1.88-1.16h-1v5H74.17V36.81Zm-1.66,5.87H77.1c1.68,0,2.73-.65,2.73-2.32S78.84,38,77,38H75.55Z" style="fill:#bcbcbc"/><path d="M88.48,49.06c-2.88,0-4.62-1.71-4.62-6.15s1.84-6.28,4.76-6.28,4.62,1.71,4.62,6.16S91.37,49.06,88.48,49.06Zm.09-1.24c2,0,3.25-1.17,3.25-4.91s-1.29-5-3.31-5S85.27,39,85.27,42.79,86.57,47.82,88.57,47.82Z" style="fill:#bcbcbc"/><path d="M19.19,60.52C8.34,59.18,0,51.89,0,37.86,0,21.59,22.08,0,22.08,0s4.49,3.81,10.64,12.8C32.72,12.8,5.24,31.64,19.19,60.52Z" style="fill:#bcbcbc"/><path d="M43.22,31.63S24.66,41,30.74,58.82c8-2.56,13.41-10.8,13.41-21A23.41,23.41,0,0,0,43.22,31.63Z" style="fill:#bcbcbc"/><path d="M38.3,20.59S10.78,34.44,20.81,60.52c3.05,0,5.29.14,7.94-.72-9.44-22,9.55-39.21,9.55-39.21Z" style="fill:#bcbcbc"/><path d="M32.72,12.8a.48.48,0,0,1,0,.41s-.27-.19-.47-.09Z" style="fill:#bcbcbc"/><path d="M54.86,57.5h-.54V55c0-.58-.29-.9-.81-.9a1,1,0,0,0-1,.68V57.5H52V53.71h.41l.11.4h0a1.43,1.43,0,0,1,1.08-.48,1.13,1.13,0,0,1,1.23,1.26Z" style="fill:#bcbcbc"/><path d="M55.08,57.72h-1V55c0-.61-.34-.68-.59-.68a.82.82,0,0,0-.75.5v2.89h-1V53.49h.8l.06.23a1.74,1.74,0,0,1,1-.31,1.35,1.35,0,0,1,1.45,1.47Zm-.54-.44h.1V54.89c0-.7-.34-1-1-1a1.3,1.3,0,0,0-.46.09,1.27,1.27,0,0,1,.34,0,1,1,0,0,1,1,1.12Zm-2.32,0h.1l0-2.57a1.3,1.3,0,0,1,.22-.38h-.18l-.07-.17-.06-.23h0Z" style="fill:#bcbcbc"/><path d="M58.53,54.8v1.72c0,.34.1.57.37.57H59v.39a.38.38,0,0,1-.19.05.69.69,0,0,1-.69-.46h0a1.4,1.4,0,0,1-1.13.5,1,1,0,0,1-1.09-1c0-.83.82-1.24,2.16-1.22v-.41c0-.62-.3-.8-.8-.8a.93.93,0,0,0-.86.46l-.4-.32a1.49,1.49,0,0,1,1.28-.62C58.05,53.65,58.53,54,58.53,54.8Zm-.51,1c-.91,0-1.63.19-1.63.76a.62.62,0,0,0,.69.61,1.15,1.15,0,0,0,.94-.52Z" style="fill:#bcbcbc"/><path d="M57,57.79a1.24,1.24,0,0,1-1.31-1.23,1.19,1.19,0,0,1,.36-.88,2.55,2.55,0,0,1,1.8-.56v-.19c0-.44-.14-.58-.58-.58a.74.74,0,0,0-.67.35l-.13.21-.76-.6.12-.17a1.73,1.73,0,0,1,1.46-.71c1,0,1.51.49,1.51,1.37v1.72c0,.35.11.35.15.35h.31v.74l-.11.06a.61.61,0,0,1-.3.08.94.94,0,0,1-.75-.34A1.6,1.6,0,0,1,57,57.79Zm-.23-2a1.24,1.24,0,0,0-.41.25.75.75,0,0,0-.23.57.79.79,0,0,0,.87.79h.13a.84.84,0,0,1-.91-.83.81.81,0,0,1,.25-.58A1.21,1.21,0,0,1,56.72,55.74Zm1.4,1.11h.12l.08.14a.43.43,0,0,0,.45.31h0c-.19,0-.46-.2-.46-.77V54.8c0-.4-.12-.93-1.07-.93a1.27,1.27,0,0,0-1,.37l0,0a1.2,1.2,0,0,1,.9-.36.89.89,0,0,1,1,1v1.75l0,.06ZM57.8,56a1.58,1.58,0,0,0-1.07.28.34.34,0,0,0-.12.26c0,.24.18.39.47.39a.91.91,0,0,0,.72-.37Z" style="fill:#bcbcbc"/><path d="M60.05,56.49V54.15h-.56V53.8l.56-.11.17-1h.37v1h1v.44h-1v2.31c0,.42.21.6.55.6a1,1,0,0,0,.57-.13l.16.43a1.75,1.75,0,0,1-.85.17C60.39,57.53,60.05,57.2,60.05,56.49Z" style="fill:#bcbcbc"/><path d="M61,57.75a1.11,1.11,0,0,1-1.19-1.26V54.37h-.56v-.75l.59-.11.17-1h.78v1h1v.88h-1v2.09c0,.31.12.38.33.38a.81.81,0,0,0,.46-.1l.23-.15.31.87-.16.09A1.9,1.9,0,0,1,61,57.75Zm-1-3.82h.27v2.56c0,.58.22.82.75.82a1.85,1.85,0,0,0,.57-.07v0a1.58,1.58,0,0,1-.45.06.73.73,0,0,1-.77-.82V53.15l-.13.73Z" style="fill:#bcbcbc"/><path d="M62.63,53.71h.55v2.48c0,.62.26.92.83.92a.88.88,0,0,0,.95-.92V53.71h.54V57.5h-.42L65,57.1h0a1.32,1.32,0,0,1-1.08.47,1.13,1.13,0,0,1-1.24-1.27Z" style="fill:#bcbcbc"/><path d="M63.87,57.79a1.35,1.35,0,0,1-1.46-1.49V53.49h1v2.7c0,.58.24.7.61.7a.66.66,0,0,0,.73-.7v-2.7h1v4.23h-.81l-.06-.22A1.7,1.7,0,0,1,63.87,57.79Zm-1-3.86V56.3c0,.72.34,1.05,1,1.05a1.11,1.11,0,0,0,.33,0c-.51.07-1.24-.05-1.24-1.12V53.93Zm2.4,3.35h0V53.93h-.1v2.26a1.23,1.23,0,0,1-.21.69h.14l.08.16Z" style="fill:#bcbcbc"/><path d="M68.62,54.24a1.51,1.51,0,0,0-.42-.05,1,1,0,0,0-.94.49V57.5h-.53V53.71h.41l.12.42h0a1.1,1.1,0,0,1,1-.48,1.74,1.74,0,0,1,.38,0Z" style="fill:#bcbcbc"/><path d="M67.48,57.72h-1V53.49h.79l.07.22a1.41,1.41,0,0,1,.87-.28,1.69,1.69,0,0,1,.43,0l.17,0v1l-.28-.08a1,1,0,0,0-.36-.05.83.83,0,0,0-.72.33ZM67,57.28H67V54.62l0,0a.89.89,0,0,1,.16-.22h-.11L67,54.19,67,53.93h0Zm1.29-3.41a.93.93,0,0,0-.64.22,1.56,1.56,0,0,1,.8-.11v-.11Z" style="fill:#bcbcbc"/><path d="M71.63,54.8v1.72c0,.34.1.57.37.57h.1v.39a.42.42,0,0,1-.2.05.69.69,0,0,1-.69-.46h0a1.38,1.38,0,0,1-1.13.5,1,1,0,0,1-1.09-1c0-.83.82-1.24,2.17-1.22v-.41c0-.62-.3-.8-.8-.8a.94.94,0,0,0-.87.46l-.39-.32a1.46,1.46,0,0,1,1.27-.62C71.15,53.65,71.63,54,71.63,54.8Zm-.5,1c-.91,0-1.63.19-1.63.76a.61.61,0,0,0,.68.61,1.18,1.18,0,0,0,.95-.52Z" style="fill:#bcbcbc"/><path d="M70.05,57.79a1.24,1.24,0,0,1-1.31-1.23,1.19,1.19,0,0,1,.36-.88,2.56,2.56,0,0,1,1.81-.56v-.19c0-.44-.14-.58-.58-.58a.75.75,0,0,0-.68.35l-.13.21-.76-.6.13-.17a1.7,1.7,0,0,1,1.45-.71c1,0,1.51.49,1.51,1.37v1.72c0,.35.11.35.15.35h.32v.74l-.12.06a.61.61,0,0,1-.3.08,1,1,0,0,1-.75-.34A1.6,1.6,0,0,1,70.05,57.79Zm-.23-2a1.24,1.24,0,0,0-.41.25.8.8,0,0,0,.64,1.36h.13a.83.83,0,0,1-.9-.83.77.77,0,0,1,.25-.58A1,1,0,0,1,69.82,55.74Zm1.41,1.11h.11l.08.14a.45.45,0,0,0,.46.31h0c-.2,0-.47-.2-.47-.77V54.8c0-.4-.11-.93-1.07-.93a1.28,1.28,0,0,0-1,.37l0,0a1.22,1.22,0,0,1,.91-.36.9.9,0,0,1,1,1v1.75l0,.06ZM70.91,56a1.61,1.61,0,0,0-1.08.28.33.33,0,0,0-.11.26c0,.24.17.39.46.39a.93.93,0,0,0,.73-.37Z" style="fill:#bcbcbc"/><path d="M73.61,52.21V56.6c0,.33.11.48.4.48a.61.61,0,0,0,.31-.08v.46a1.09,1.09,0,0,1-.47.09.71.71,0,0,1-.77-.81V52.21Z" style="fill:#bcbcbc"/><path d="M73.85,57.77a.93.93,0,0,1-1-1V52h1V56.6c0,.26.06.26.18.26a.49.49,0,0,0,.21,0l.32-.16v1l-.13.06A1.48,1.48,0,0,1,73.85,57.77Zm-.55-5.34v4.31c0,.4.17.59.55.59a1,1,0,0,0,.25,0h0c-.31,0-.71,0-.71-.69V52.43Z" style="fill:#bcbcbc"/><path d="M79.08,54.24a1.58,1.58,0,0,0-.43-.05,1,1,0,0,0-.93.49V57.5h-.54V53.71h.41l.12.42h0a1.1,1.1,0,0,1,1-.48,1.81,1.81,0,0,1,.38,0Z" style="fill:#bcbcbc"/><path d="M77.94,57.72H77V53.49h.8l.06.22a1.47,1.47,0,0,1,.88-.28,1.69,1.69,0,0,1,.43,0l.17,0v1L79,54.46a1.07,1.07,0,0,0-.37-.05.81.81,0,0,0-.71.33Zm-.54-.44h.1V54.62l0,0a.89.89,0,0,1,.16-.22h-.12l-.07-.16-.07-.26h0Zm1.3-3.41a.91.91,0,0,0-.64.22,1.55,1.55,0,0,1,.8-.11v-.11Z" style="fill:#bcbcbc"/><path d="M82.42,57.2a2,2,0,0,1-1.19.35c-1.08,0-1.66-.55-1.66-2s.76-1.93,1.6-1.93a1.31,1.31,0,0,1,1.38,1.48,5.25,5.25,0,0,1,0,.65H80.1c.05.94.44,1.29,1.2,1.29a1.43,1.43,0,0,0,.88-.28Zm-2.31-1.86H82a1.94,1.94,0,0,0,0-.22c0-.65-.28-1-.89-1S80.16,54.43,80.11,55.34Z" style="fill:#bcbcbc"/><path d="M81.23,57.77c-1.27,0-1.89-.72-1.89-2.19s1-2.15,1.83-2.15a1.53,1.53,0,0,1,1.6,1.7,5.71,5.71,0,0,1,0,.68l0,.19H80.34c.1.7.44.85,1,.85a1.22,1.22,0,0,0,.73-.23l.2-.17.48.81-.16.12A2.2,2.2,0,0,1,81.23,57.77Zm-.06-3.9c-.87,0-1.38.64-1.38,1.71s.43,1.75,1.44,1.75a1.82,1.82,0,0,0,.89-.2l0,0a1.75,1.75,0,0,1-.8.19c-.91,0-1.37-.47-1.42-1.49v-.24h2.44a3.32,3.32,0,0,0,0-.43A1.11,1.11,0,0,0,81.17,53.87Zm1,1.69H79.88v-.23c.07-1.33,1-1.44,1.24-1.44.71,0,1.11.44,1.11,1.23a2.27,2.27,0,0,1,0,.24Zm-1.86-.44H81.8c0-.69-.34-.79-.67-.79S80.43,54.6,80.35,55.12Z" style="fill:#bcbcbc"/><path d="M83.48,54.7c0-.55.47-1.05,1.3-1.05a1.59,1.59,0,0,1,1.11.4l-.35.38a1.08,1.08,0,0,0-.77-.31c-.52,0-.75.26-.75.56,0,.85,1.92.51,1.92,1.8,0,.52-.44,1.08-1.35,1.08a1.9,1.9,0,0,1-1.34-.48l.33-.4a1.45,1.45,0,0,0,1,.41c.53,0,.79-.28.79-.6C85.4,55.64,83.48,56,83.48,54.7Z" style="fill:#bcbcbc"/><path d="M84.59,57.78a2.07,2.07,0,0,1-1.5-.55L83,57.09l.62-.74.17.17a1.18,1.18,0,0,0,.87.35c.35,0,.57-.14.57-.38s-.21-.31-.67-.48-1.25-.45-1.25-1.31a1.36,1.36,0,0,1,1.52-1.27,1.8,1.8,0,0,1,1.27.47l.14.15-.65.7-.16-.17a.91.91,0,0,0-.61-.24c-.2,0-.53,0-.53.34s.21.31.67.48,1.25.46,1.25,1.32A1.4,1.4,0,0,1,84.59,57.78Zm-1-.73a1.75,1.75,0,0,0,1,.29c.77,0,1.13-.45,1.13-.86s-.37-.69-1-.91c-.44-.17-1-.35-1-.89,0-.36.25-.78,1-.78a1.4,1.4,0,0,1,.75.22l0,0a1.52,1.52,0,0,0-.79-.2c-.71,0-1.08.41-1.08.83s.37.68,1,.9,1,.36,1,.89-.31.82-1,.82a1.66,1.66,0,0,1-1-.32Z" style="fill:#bcbcbc"/><path d="M86.78,55.61c0-1.17.44-2,1.59-2s1.56.78,1.56,1.93-.45,2-1.6,2S86.78,56.77,86.78,55.61Zm1.59,1.48c.73,0,1-.48,1-1.47s-.31-1.51-1-1.51-1,.48-1,1.46S87.65,57.09,88.37,57.09Z" style="fill:#bcbcbc"/><path d="M88.33,57.78c-1.17,0-1.77-.73-1.77-2.17s.65-2.19,1.81-2.19,1.78.72,1.78,2.15S89.5,57.78,88.33,57.78Zm0-3.92c-.92,0-1.36.57-1.36,1.75s.4,1.73,1.32,1.73,1.38-.58,1.38-1.77S89.3,53.86,88.37,53.86Zm0,3.45c-1.25,0-1.25-1.31-1.25-1.74,0-.72.13-1.68,1.21-1.68,1.26,0,1.26,1.3,1.26,1.73C89.59,56.34,89.46,57.31,88.37,57.31Zm0-3c-.46,0-.77.21-.77,1.24s.39,1.3.81,1.3.78-.21.78-1.25S88.76,54.33,88.33,54.33Z" style="fill:#bcbcbc"/><path d="M90.93,53.71h.54v2.48c0,.62.27.92.83.92a.88.88,0,0,0,1-.92V53.71h.55V57.5h-.43l-.1-.4h0a1.3,1.3,0,0,1-1.08.47c-.78,0-1.21-.41-1.23-1.27Z" style="fill:#bcbcbc"/><path d="M92.16,57.79a1.35,1.35,0,0,1-1.45-1.49V53.49h1v2.7c0,.58.24.7.61.7a.66.66,0,0,0,.73-.7v-2.7h1v4.23H93.2l-.06-.22A1.67,1.67,0,0,1,92.16,57.79Zm-1-3.86V56.3c0,.72.34,1.05,1,1.05a1.18,1.18,0,0,0,.34,0,1,1,0,0,1-1.25-1.12V53.93Zm2.39,3.35h0V53.93h-.11v2.26a1.15,1.15,0,0,1-.21.69h.15l.07.16Z" style="fill:#bcbcbc"/><path d="M96.92,54.24a1.58,1.58,0,0,0-.43-.05,1,1,0,0,0-.93.49V57.5H95V53.71h.41l.12.42h0a1.08,1.08,0,0,1,1-.48,1.85,1.85,0,0,1,.39,0Z" style="fill:#bcbcbc"/><path d="M95.78,57.72h-1V53.49h.8l.06.22a1.44,1.44,0,0,1,.87-.28,1.78,1.78,0,0,1,.44,0l.17,0v1l-.29-.08a1,1,0,0,0-.36-.05.8.8,0,0,0-.71.33Zm-.54-.44h.1V54.62l0,0a.92.92,0,0,1,.17-.22h-.12l-.07-.16-.07-.26h0Zm1.29-3.41a.9.9,0,0,0-.63.22,1.53,1.53,0,0,1,.8-.11v-.11Z" style="fill:#bcbcbc"/><path d="M98.84,53.65a1.39,1.39,0,0,1,1.08.39l-.36.4a1,1,0,0,0-.74-.31c-.62,0-1,.4-1,1.46s.39,1.49,1,1.49a1,1,0,0,0,.74-.3l.33.38a1.41,1.41,0,0,1-1.12.4c-.93,0-1.53-.54-1.53-1.9S97.92,53.65,98.84,53.65Z" style="fill:#bcbcbc"/><path d="M98.77,57.78c-.8,0-1.75-.37-1.75-2.12,0-1.4.68-2.23,1.82-2.23a1.59,1.59,0,0,1,1.25.47l.13.15-.65.71-.17-.17a.75.75,0,0,0-.58-.24c-.35,0-.81.12-.81,1.24s.43,1.27.81,1.27a.72.72,0,0,0,.57-.23l.16-.18.63.71-.13.14A1.6,1.6,0,0,1,98.77,57.78Zm.07-3.91c-.89,0-1.38.63-1.38,1.79s.42,1.68,1.31,1.68a1.4,1.4,0,0,0,.81-.2l0,0a1.28,1.28,0,0,1-.72.21c-.57,0-1.25-.3-1.25-1.71s.78-1.68,1.25-1.68a1.16,1.16,0,0,1,.72.22l.07-.07A1.42,1.42,0,0,0,98.84,53.87Z" style="fill:#bcbcbc"/><path d="M103.45,57.2a2,2,0,0,1-1.19.35c-1.08,0-1.67-.55-1.67-2s.77-1.93,1.61-1.93a1.31,1.31,0,0,1,1.38,1.48,5.25,5.25,0,0,1,0,.65h-2.41c.05.94.44,1.29,1.2,1.29a1.42,1.42,0,0,0,.87-.28Zm-2.32-1.86H103v-.22c0-.65-.28-1-.89-1S101.18,54.43,101.13,55.34Z" style="fill:#bcbcbc"/><path d="M102.26,57.77c-1.27,0-1.89-.72-1.89-2.19s.95-2.15,1.83-2.15a1.53,1.53,0,0,1,1.6,1.7,5.71,5.71,0,0,1,0,.68l0,.19h-2.36c.09.7.44.85,1,.85a1.25,1.25,0,0,0,.73-.23l.2-.17.48.81-.16.12A2.2,2.2,0,0,1,102.26,57.77Zm-.06-3.9c-.87,0-1.39.64-1.39,1.71s.43,1.75,1.45,1.75a1.85,1.85,0,0,0,.89-.2l0,0a1.78,1.78,0,0,1-.8.19c-.92,0-1.37-.47-1.42-1.49v-.24h2.44c0-.16,0-.3,0-.43A1.11,1.11,0,0,0,102.2,53.87Zm1,1.69H100.9l0-.23c.07-1.33,1-1.44,1.23-1.44.72,0,1.11.44,1.11,1.23v.24Zm-1.86-.44h1.44c0-.69-.34-.79-.67-.79S101.46,54.6,101.38,55.12Z" style="fill:#bcbcbc"/><path d="M107.85,57.5a3.05,3.05,0,0,1-.6-.06v1.41h-.53V53.71h.4l.12.38h0a1.18,1.18,0,0,1,1-.45c.86,0,1.41.58,1.41,1.81S108.94,57.5,107.85,57.5Zm0-.48c.85,0,1.28-.5,1.28-1.51s-.48-1.4-1-1.4a1,1,0,0,0-.88.52v2.31A1.93,1.93,0,0,0,107.83,57Z" style="fill:#bcbcbc"/><path d="M107.47,59.07h-1V53.49h.78l.07.21a1.46,1.46,0,0,1,.9-.28c1,0,1.63.74,1.63,2a2,2,0,0,1-2,2.27,2.48,2.48,0,0,1-.38,0Zm-.53-.44H107V57.17l.27.06a3.31,3.31,0,0,0,.55.05c1,0,1.59-.66,1.59-1.83s-.4-1.59-1.19-1.59a1,1,0,0,0-.32,0h.2c.28,0,1.2.11,1.2,1.62s-.82,1.73-1.5,1.73a2.3,2.3,0,0,1-.65-.09l-.15,0V54.58l0,0a1.07,1.07,0,0,1,.15-.22h-.1l-.08-.15-.09-.23Zm.53-1.86.36,0c.49,0,1.06-.14,1.06-1.29,0-.54-.13-1.18-.76-1.18a.77.77,0,0,0-.66.36Z" style="fill:#bcbcbc"/><path d="M112.57,54.24a1.47,1.47,0,0,0-.42-.05,1,1,0,0,0-.93.49V57.5h-.54V53.71h.41l.12.42h0a1.07,1.07,0,0,1,1-.48,1.68,1.68,0,0,1,.38,0Z" style="fill:#bcbcbc"/><path d="M111.44,57.72h-1V53.49h.8l.06.22a1.41,1.41,0,0,1,.87-.28,1.78,1.78,0,0,1,.44,0l.16,0v1l-.28-.08a1,1,0,0,0-.36-.05.8.8,0,0,0-.71.33Zm-.54-.44h.1V54.62l0,0a.92.92,0,0,1,.17-.22h-.12l-.07-.16-.08-.26h0Zm1.29-3.41a.9.9,0,0,0-.63.22,1.51,1.51,0,0,1,.79-.11v-.11Z" style="fill:#bcbcbc"/><path d="M113.06,55.61c0-1.17.44-2,1.59-2s1.55.78,1.55,1.93-.44,2-1.59,2S113.06,56.77,113.06,55.61Zm1.59,1.48c.73,0,1-.48,1-1.47s-.31-1.51-1-1.51-1,.48-1,1.46S113.92,57.09,114.65,57.09Z" style="fill:#bcbcbc"/><path d="M114.61,57.78c-1.18,0-1.77-.73-1.77-2.17s.64-2.19,1.81-2.19,1.77.72,1.77,2.15S115.78,57.78,114.61,57.78Zm0-3.92c-.92,0-1.37.57-1.37,1.75s.41,1.73,1.33,1.73,1.37-.58,1.37-1.77S115.57,53.86,114.65,53.86Zm0,3.45c-1.25,0-1.25-1.31-1.25-1.74,0-.72.12-1.68,1.21-1.68,1.26,0,1.26,1.3,1.26,1.73C115.87,56.34,115.74,57.31,114.65,57.31Zm0-3c-.46,0-.77.21-.77,1.24s.39,1.3.81,1.3.78-.21.78-1.25S115,54.33,114.61,54.33Z" style="fill:#bcbcbc"/><path d="M118,56c.12.36.2.67.28,1h0c.07-.33.17-.64.28-1l.73-2.27h.56l-1.28,3.79h-.63l-1.3-3.79h.59Z" style="fill:#bcbcbc"/><path d="M118.73,57.72h-.94l-1.46-4.23h1.06l.79,2.42.09.28.06-.22.8-2.48h1Zm-.63-.44h.31l0-.08h-.34L118,57a9.77,9.77,0,0,0-.27-1h0l-.69-2.12H117Zm1.35-3.35-.7,2.17c-.1.34-.19.63-.26.93v0l1.06-3.15Z" style="fill:#bcbcbc"/><path d="M121,52.2a.4.4,0,1,1,0,.79.4.4,0,0,1,0-.79Zm-.24,1.51h.55V57.5h-.55Z" style="fill:#bcbcbc"/><path d="M121.52,57.72h-1V53.49h1Zm-.55-.44h.11V53.93H121Zm0-4.07A.62.62,0,0,1,121,52a.62.62,0,1,1,0,1.23Zm0-.79a.17.17,0,0,0-.17.18.16.16,0,0,0,.17.17.17.17,0,0,0,.19-.17A.18.18,0,0,0,121,52.42Z" style="fill:#bcbcbc"/><path d="M124.86,52.21h.53V57.5H125l-.12-.39h0a1.15,1.15,0,0,1-1,.46c-.85,0-1.4-.56-1.4-1.8s.73-2.06,1.8-2.06a3.71,3.71,0,0,1,.61.06Zm0,4.28V54.27a2.2,2.2,0,0,0-.58-.09c-.84,0-1.28.48-1.28,1.53s.47,1.4,1,1.4A.93.93,0,0,0,124.86,56.49Z" style="fill:#bcbcbc"/><path d="M123.85,57.79c-1,0-1.62-.73-1.62-2s.76-2.28,2-2.28l.39,0V52h1v5.73h-.78l-.07-.21A1.49,1.49,0,0,1,123.85,57.79Zm.4-3.86c-1,0-1.58.67-1.58,1.84s.4,1.58,1.18,1.58a1,1,0,0,0,.31,0l-.19,0c-.36,0-1.19-.16-1.19-1.62s.82-1.75,1.5-1.75a2.84,2.84,0,0,1,.65.1l.15,0,0,2.47a1.33,1.33,0,0,1-.18.31H125l.08.16.09.23V52.43h-.09V54l-.27,0A2.74,2.74,0,0,0,124.25,53.93Zm0,.47c-.49,0-1.06.15-1.06,1.31,0,.54.13,1.18.75,1.18a.7.7,0,0,0,.67-.44v-2A2.47,2.47,0,0,0,124.28,54.4Z" style="fill:#bcbcbc"/><path d="M129.27,57.2a2,2,0,0,1-1.19.35c-1.08,0-1.67-.55-1.67-2s.77-1.93,1.61-1.93a1.31,1.31,0,0,1,1.38,1.48,5.25,5.25,0,0,1,0,.65H127c0,.94.44,1.29,1.2,1.29a1.43,1.43,0,0,0,.88-.28ZM127,55.34h1.9a1.94,1.94,0,0,0,0-.22c0-.65-.28-1-.89-1S127,54.43,127,55.34Z" style="fill:#bcbcbc"/><path d="M128.08,57.77c-1.27,0-1.89-.72-1.89-2.19s1-2.15,1.83-2.15a1.53,1.53,0,0,1,1.6,1.7,5.71,5.71,0,0,1,0,.68l0,.19h-2.37c.1.7.44.85,1,.85a1.22,1.22,0,0,0,.73-.23l.2-.17.48.81-.16.12A2.2,2.2,0,0,1,128.08,57.77Zm-.06-3.9c-.87,0-1.39.64-1.39,1.71s.44,1.75,1.45,1.75a1.82,1.82,0,0,0,.89-.2l0,0a1.75,1.75,0,0,1-.8.19c-.92,0-1.37-.47-1.42-1.49v-.24h2.44a3.24,3.24,0,0,0,0-.43A1.11,1.11,0,0,0,128,53.87Zm1,1.69h-2.33v-.23c.07-1.33,1-1.44,1.24-1.44.71,0,1.11.44,1.11,1.23a2.27,2.27,0,0,1,0,.24Zm-1.86-.44h1.45c0-.69-.34-.79-.67-.79S127.28,54.6,127.2,55.12Z" style="fill:#bcbcbc"/><path d="M132.36,54.24a1.51,1.51,0,0,0-.42-.05,1,1,0,0,0-.94.49V57.5h-.53V53.71h.41l.12.42h0a1.1,1.1,0,0,1,1-.48,1.74,1.74,0,0,1,.38,0Z" style="fill:#bcbcbc"/><path d="M131.22,57.72h-1V53.49H131l.07.22a1.41,1.41,0,0,1,.87-.28,1.69,1.69,0,0,1,.43,0l.17,0v1l-.28-.08a1,1,0,0,0-.36-.05.83.83,0,0,0-.72.33Zm-.53-.44h.09V54.62l0,0a.89.89,0,0,1,.16-.22h-.11l-.08-.16-.07-.26h0ZM132,53.87a.93.93,0,0,0-.64.22,1.56,1.56,0,0,1,.8-.11v-.11Z" style="fill:#bcbcbc"/></g></g></svg>