<svg xmlns="http://www.w3.org/2000/svg" viewBox="0 0 150.77 71.53"><title>Asset 5</title><g id="Layer_2" data-name="Layer 2"><g id="Layer_1-2" data-name="Layer 1"><text transform="translate(22.13 68.62) scale(1.02 1)" style="font-size:11.07802963256836px;fill:#bcbcbc;font-family:Biko, Biko;letter-spacing:-0.025006254563473475em">Den<tspan x="18.38" y="0" style="letter-spacing:-0.046045999782395985em">t</tspan><tspan x="21.8" y="0" style="letter-spacing:0.00103474156814373em">a</tspan><tspan x="27.99" y="0">l &amp; D</tspan><tspan x="50.22" y="0" style="letter-spacing:-0.03199076014844365em">e</tspan><tspan x="55.39" y="0" style="letter-spacing:0.0019832546722754825em">r</tspan><tspan x="59.03" y="0">m</tspan><tspan x="68.63" y="0" style="letter-spacing:-0.0009485131041317525em">a</tspan><tspan x="74.8" y="0" style="letter-spacing:-0.041044748869701296em">t</tspan><tspan x="78.28" y="0">olo</tspan><tspan x="91.87" y="0" style="letter-spacing:-0.02103974521892251em">g</tspan><tspan x="97.82" y="0">y</tspan></text><path d="M13.54,31H9.74V47.48H4.87V18.25a9.61,9.61,0,0,0-.67-3.93c-.46-1-1.49-1.49-3.12-1.49H0V11.75H14.08a32.34,32.34,0,0,1,4.06.3,14.4,14.4,0,0,1,4.44,1.32,10,10,0,0,1,3.57,3,8.4,8.4,0,0,1,1.46,5.18,8.8,8.8,0,0,1-.81,3.95,8.35,8.35,0,0,1-2.08,2.68,10.24,10.24,0,0,1-2.82,1.65A22,22,0,0,1,19,30.7l5.68,9.47A25.72,25.72,0,0,0,26.56,43a12.36,12.36,0,0,0,1.76,1.87A5.86,5.86,0,0,0,30.05,46a7.92,7.92,0,0,0,1.89.43v1.08a5.08,5.08,0,0,1-1.32.38,10.69,10.69,0,0,1-1.93.16,8.87,8.87,0,0,1-2.62-.37,7.37,7.37,0,0,1-2.36-1.3,15.23,15.23,0,0,1-2.3-2.44A38,38,0,0,1,19,40.17Zm.27-1.9a9,9,0,0,0,2.57-.43,10,10,0,0,0,2.73-1.32A7.76,7.76,0,0,0,21.3,25a6.45,6.45,0,0,0,.9-3.49,7,7,0,0,0-.9-3.63,7.73,7.73,0,0,0-2.19-2.44,9.52,9.52,0,0,0-2.73-1.35,9,9,0,0,0-2.57-.44,14.55,14.55,0,0,0-2.14.17,16.92,16.92,0,0,0-1.93.38V28.53a16.92,16.92,0,0,0,1.93.38A14.5,14.5,0,0,0,13.81,29.07Z" style="fill:#bcbcbc"/><path d="M53.6,35.57H37.19a16.8,16.8,0,0,0,.49,4.12A10.18,10.18,0,0,0,39.12,43a6.78,6.78,0,0,0,2.3,2.14,6.14,6.14,0,0,0,3.08.76,8,8,0,0,0,4.42-1.14,11.3,11.3,0,0,0,3.16-3.19l1.09.81a11.42,11.42,0,0,1-4.25,4.38,11.37,11.37,0,0,1-5.5,1.3,11.08,11.08,0,0,1-5-1.05,10.63,10.63,0,0,1-3.55-2.84,11.9,11.9,0,0,1-2.13-4.2,18.35,18.35,0,0,1-.71-5.17,18,18,0,0,1,.73-5.17,12.62,12.62,0,0,1,2.14-4.2,10.73,10.73,0,0,1,3.41-2.84,9.66,9.66,0,0,1,4.55-1.05c3.68,0,6.41,1,8.18,3.08s2.65,5,2.65,8.83Zm-5-2.16a15,15,0,0,0-1.4-7.23,4.6,4.6,0,0,0-4.28-2.52,3.79,3.79,0,0,0-2.27.73,6.37,6.37,0,0,0-1.79,2,11.44,11.44,0,0,0-1.19,3.09,16.45,16.45,0,0,0-.44,3.9Z" style="fill:#bcbcbc"/><path d="M59.39,28.53a9.59,9.59,0,0,0-.67-3.92c-.46-1-1.49-1.49-3.12-1.49H54.52V22h4.87a9.8,9.8,0,0,1,2.36.24,2.69,2.69,0,0,1,1.51,1,4.44,4.44,0,0,1,.79,2,20.78,20.78,0,0,1,.21,3.27v17.6a25.94,25.94,0,0,1-.46,5.25A8.3,8.3,0,0,1,62.21,55a6.66,6.66,0,0,1-3.09,2.08,15,15,0,0,1-4.87.68V56.69a4.1,4.1,0,0,0,3.9-2.82,19.59,19.59,0,0,0,1.24-7.74Z" style="fill:#bcbcbc"/><path d="M91.71,47.48H89l-1.9-2.16h-.27A9.72,9.72,0,0,1,84,47.18,9.88,9.88,0,0,1,79.8,48a14.14,14.14,0,0,1-3.38-.4,7.06,7.06,0,0,1-3-1.52,7.82,7.82,0,0,1-2.09-3,12.79,12.79,0,0,1-.78-4.82V28.53a9.58,9.58,0,0,0-.68-3.92c-.45-1-1.49-1.49-3.11-1.49h-.54V22H70.6a9.71,9.71,0,0,1,2.35.24,2.68,2.68,0,0,1,1.52,1,4.44,4.44,0,0,1,.79,2,20.78,20.78,0,0,1,.21,3.27v9.75A9.77,9.77,0,0,0,76,41.72,6.23,6.23,0,0,0,77.34,44a4.92,4.92,0,0,0,1.89,1.25,6.57,6.57,0,0,0,2.2.38,5.52,5.52,0,0,0,3-.87,11.26,11.26,0,0,0,2.41-2V22h4.87Z" style="fill:#bcbcbc"/><path d="M109.91,39.9,117.49,22h2.7l-11.1,26H108L99.62,28.26a22.36,22.36,0,0,0-1.25-2.54A7.79,7.79,0,0,0,97.13,24a4.46,4.46,0,0,0-1.41-1A4.88,4.88,0,0,0,94,22.69V21.6c.14,0,.42,0,.84-.05s.75-.05,1-.05a11.87,11.87,0,0,1,2.46.27,7.79,7.79,0,0,1,2.47,1A9.16,9.16,0,0,1,103,24.83a14.71,14.71,0,0,1,2,3.43Z" style="fill:#bcbcbc"/><path d="M139.52,47.48l-1.89-2.43h-.28a8.32,8.32,0,0,1-2.65,2,10.57,10.57,0,0,1-4.92,1,9.81,9.81,0,0,1-2.5-.35,7.36,7.36,0,0,1-2.54-1.22,7,7,0,0,1-2-2.32,7.57,7.57,0,0,1-.82-3.69,5.83,5.83,0,0,1,1.14-3.68,8,8,0,0,1,3-2.33,16.07,16.07,0,0,1,4.39-1.21,36.69,36.69,0,0,1,5.25-.36h1.62a20.36,20.36,0,0,0-.43-4.62,7.57,7.57,0,0,0-1.19-2.82A3.92,3.92,0,0,0,133.92,24a6.73,6.73,0,0,0-2.25-.38,7,7,0,0,0-3.82,1,5.44,5.44,0,0,0-2.14,3.62h-2.43a19.51,19.51,0,0,1,.16-2.62,4,4,0,0,1,1.19-2.25,4.68,4.68,0,0,1,1.38-.87,10.2,10.2,0,0,1,2-.59,21.93,21.93,0,0,1,2.3-.33c.81-.07,1.63-.1,2.46-.1a15.33,15.33,0,0,1,3.55.4,6.61,6.61,0,0,1,3,1.63A8.19,8.19,0,0,1,141.44,27a18,18,0,0,1,.79,5.87V47.48ZM137.35,35h-1.62a11.64,11.64,0,0,0-6.36,1.49,4.48,4.48,0,0,0-2.3,3.92,5.55,5.55,0,0,0,.43,2.28,4.82,4.82,0,0,0,1.14,1.62,4.28,4.28,0,0,0,1.62.95,6.31,6.31,0,0,0,2,.3,4.74,4.74,0,0,0,3.17-1,10.76,10.76,0,0,0,2-2.25Z" style="fill:#bcbcbc"/><path d="M59.11,15.42a3.45,3.45,0,0,0,.2-.62s0-.05,0-.08,0-.26,0-.39c0-1.54-1.69-1.77-2.28-1.81a.1.1,0,0,1-.07-.16c.21-.22.59-.64.91-1a5,5,0,0,0-2.28-.93L51.5,9.86l-4.37-.61,2.66,3.37L52.44,16a4.45,4.45,0,0,0,3.19,1.68,3.78,3.78,0,0,0,3.47-2.2Z" style="fill:#bcbcbc"/><path d="M69.88,9.86l-4.15.57a4.29,4.29,0,0,0-3.62,2.78,4.72,4.72,0,0,0,.25,2.37,3.8,3.8,0,0,0,3.4,2.06A4.41,4.41,0,0,0,68.94,16l2.65-3.34,2.67-3.37Z" style="fill:#bcbcbc"/><path d="M64.57,9.11,62.82,4.67,61,0,59,4.62l-2,4.6a5,5,0,0,0,.07,4.13,4.22,4.22,0,0,0,2.1,1.82,4.51,4.51,0,0,0,.17-.75c0-1.63-1.69-1.86-2.29-1.9a.1.1,0,0,1-.07-.16l1.39-1.53a2.71,2.71,0,0,1,2-.9h.12l.43-1.71a.51.51,0,0,1-.35-.43.5.5,0,1,1,.54.45l-.15,0,.09,0L60.64,10a1.76,1.76,0,0,1,.49.16l.78-1.6a.46.46,0,0,1-.19-.22A.5.5,0,0,1,62,7.63a.51.51,0,0,1,.66.26.5.5,0,0,1-.6.68l-.78,1.6a2,2,0,0,1,.42.35l1-1.41a.55.55,0,0,1-.12-.27.52.52,0,1,1,.22.36l-1,1.43h0a2,2,0,0,1,.42,1.27,12.66,12.66,0,0,0,.06,3.38,4.41,4.41,0,0,0,.74-.33C65,13.77,65.37,11.09,64.57,9.11Z" style="fill:#bcbcbc"/><text transform="translate(143.1 26.61) scale(1.02 1)" style="font-size:5.787479877471924px;fill:#bcbcbc;font-family:Biko-Bold, Biko;font-weight:700;letter-spacing:-0.025088070793733243em">TM</text></g></g></svg>