<svg xmlns="http://www.w3.org/2000/svg" viewBox="0 0 89.93 89.7"><title>Asset 2</title><g id="Layer_2" data-name="Layer 2"><g id="Layer_1-2" data-name="Layer 1"><path d="M3.08,79.63a1.13,1.13,0,0,0-.3-.24,1.81,1.81,0,0,0-.35-.16,2.14,2.14,0,0,0-.34-.09l-.28-.06L1.48,79l-.31-.11a.72.72,0,0,1-.24-.16.36.36,0,0,1-.09-.24.38.38,0,0,1,.08-.24.63.63,0,0,1,.19-.17A1.06,1.06,0,0,1,1.36,78l.23,0a1.4,1.4,0,0,1,.58.12,2.82,2.82,0,0,1,.57.36l.45-.71-.36-.27a2.91,2.91,0,0,0-.35-.18,2.4,2.4,0,0,0-.38-.12,3.38,3.38,0,0,0-.47,0,2.64,2.64,0,0,0-.55.06,1.46,1.46,0,0,0-.51.22,1.22,1.22,0,0,0-.38.43A1.61,1.61,0,0,0,.12,79a1.28,1.28,0,0,0,.22.36,1.48,1.48,0,0,0,.31.25,1.81,1.81,0,0,0,.35.16l.34.1.29.06L2,80a2.09,2.09,0,0,1,.3.11.58.58,0,0,1,.21.17.36.36,0,0,1,.07.24.47.47,0,0,1-.05.22.55.55,0,0,1-.15.2.86.86,0,0,1-.25.14,1,1,0,0,1-.35.05,1.48,1.48,0,0,1-.7-.17,5.12,5.12,0,0,1-.65-.42L0,81.28l.38.28a2.46,2.46,0,0,0,.39.22,2.37,2.37,0,0,0,.45.15,2.52,2.52,0,0,0,.57,0,2.17,2.17,0,0,0,.65-.09,1.58,1.58,0,0,0,.5-.26,1.25,1.25,0,0,0,.33-.45,1.56,1.56,0,0,0,.11-.64A1.38,1.38,0,0,0,3.3,80,1.09,1.09,0,0,0,3.08,79.63Z" style="fill:#bcbcbc"/><path d="M8,78.59a2.54,2.54,0,0,0-.47-.78,2.1,2.1,0,0,0-.69-.52,2,2,0,0,0-1.68,0,2.1,2.1,0,0,0-.69.52,2.54,2.54,0,0,0-.47.78,2.75,2.75,0,0,0-.17,1,2.67,2.67,0,0,0,.17.95,2.54,2.54,0,0,0,.47.78,2.1,2.1,0,0,0,.69.52,2,2,0,0,0,1.68,0,2.1,2.1,0,0,0,.69-.52A2.54,2.54,0,0,0,8,80.49a2.67,2.67,0,0,0,.17-.95A2.75,2.75,0,0,0,8,78.59Zm-.74,1.56a1.83,1.83,0,0,1-.29.51,1.51,1.51,0,0,1-.44.36,1.15,1.15,0,0,1-1.06,0A1.51,1.51,0,0,1,5,80.66a1.83,1.83,0,0,1-.29-.51,1.78,1.78,0,0,1-.11-.61A1.79,1.79,0,0,1,5,78.42a1.66,1.66,0,0,1,.44-.35,1.15,1.15,0,0,1,1.06,0,1.66,1.66,0,0,1,.44.35,1.79,1.79,0,0,1,.4,1.12A1.78,1.78,0,0,1,7.27,80.15Z" style="fill:#bcbcbc"/><path d="M9.86,78.43a1.33,1.33,0,0,1,.43-.35,1.09,1.09,0,0,1,.53-.13,1,1,0,0,1,.35,0,1.82,1.82,0,0,1,.31.16,1.55,1.55,0,0,1,.27.24,1.48,1.48,0,0,1,.22.29l.75-.34a2.93,2.93,0,0,0-.34-.5,2.07,2.07,0,0,0-.44-.4,2.14,2.14,0,0,0-.53-.25,2,2,0,0,0-1.43.1,2.19,2.19,0,0,0-.68.53,2.42,2.42,0,0,0-.47.77,2.71,2.71,0,0,0-.17,1,2.66,2.66,0,0,0,.17.94,2.36,2.36,0,0,0,.47.78,2.16,2.16,0,0,0,.68.52,2,2,0,0,0,1.43.1,2.14,2.14,0,0,0,.53-.25,2.32,2.32,0,0,0,.44-.39,3,3,0,0,0,.34-.51L12,80.4a1.48,1.48,0,0,1-.22.29,1.55,1.55,0,0,1-.27.24,1.3,1.3,0,0,1-.31.16,1,1,0,0,1-.35.06,1.22,1.22,0,0,1-.53-.13,1.47,1.47,0,0,1-.43-.35,1.83,1.83,0,0,1-.29-.51,1.61,1.61,0,0,1-.11-.61,1.79,1.79,0,0,1,.4-1.12Z" style="fill:#bcbcbc"/><rect x="13.45" y="77.19" width="0.8" height="4.7" style="fill:#bcbcbc"/><path d="M18,81.15l.33.74h.87l-2.14-4.7H17l-2.14,4.7h.87l.32-.74ZM17,79l.6,1.42h-1.2Z" style="fill:#bcbcbc"/><polygon points="19.56 77.19 19.56 81.89 22.57 81.89 22.57 81.1 20.36 81.1 20.36 77.19 19.56 77.19" style="fill:#bcbcbc"/><polygon points="28.44 81.89 29.24 81.89 29.24 77.19 29.19 77.19 27.14 79.91 25.08 77.19 25.03 77.19 25.03 81.89 25.83 81.89 25.83 79.51 27.14 81.28 28.44 79.51 28.44 81.89" style="fill:#bcbcbc"/><polygon points="33.24 77.98 33.24 77.19 30.16 77.19 30.16 81.89 33.24 81.89 33.24 81.08 30.96 81.08 30.96 79.98 32.99 79.98 32.99 79.16 30.96 79.16 30.96 77.98 33.24 77.98" style="fill:#bcbcbc"/><path d="M36.54,81.75a1.92,1.92,0,0,0,.65-.44,2.1,2.1,0,0,0,.46-.76,2.93,2.93,0,0,0,.16-1,2.87,2.87,0,0,0-.16-1,2,2,0,0,0-.46-.76,1.94,1.94,0,0,0-1.47-.59H34.07v4.7h1.65A2.43,2.43,0,0,0,36.54,81.75ZM34.87,78h.85a1.86,1.86,0,0,1,.45.06.87.87,0,0,1,.41.22,1.17,1.17,0,0,1,.31.47,2.25,2.25,0,0,1,.12.8,2.19,2.19,0,0,1-.12.79,1.27,1.27,0,0,1-.3.47,1.09,1.09,0,0,1-.42.23,1.74,1.74,0,0,1-.45.06h-.85Z" style="fill:#bcbcbc"/><rect x="38.62" y="77.19" width="0.8" height="4.7" style="fill:#bcbcbc"/><path d="M43.18,81.15l.33.74h.87l-2.14-4.7h-.08L40,81.89h.87l.32-.74Zm-1-2.2.6,1.42H41.6Z" style="fill:#bcbcbc"/><polygon points="48.93 79.91 46.88 77.19 46.82 77.19 46.82 81.89 47.63 81.89 47.63 79.51 48.93 81.28 50.24 79.51 50.24 81.89 51.04 81.89 51.04 77.19 50.98 77.19 48.93 79.91" style="fill:#bcbcbc"/><path d="M53.6,77.19l-2.14,4.7h.87l.32-.74h2l.33.74h.86l-2.13-4.7ZM53,80.37l.6-1.42.59,1.42Z" style="fill:#bcbcbc"/><polygon points="59.14 80.03 56.39 77.19 56.31 77.19 56.31 81.89 57.11 81.89 57.11 79.1 59.85 81.89 59.94 81.89 59.94 77.19 59.14 77.19 59.14 80.03" style="fill:#bcbcbc"/><path d="M63.59,81.15l.33.74h.87l-2.14-4.7h-.08l-2.14,4.7h.87l.32-.74Zm-1-2.2.59,1.42H62Z" style="fill:#bcbcbc"/><path d="M66.66,80.13h1.55a1.18,1.18,0,0,1-.19.41,1.24,1.24,0,0,1-.28.32,1.36,1.36,0,0,1-.37.21,1.16,1.16,0,0,1-.42.08,1.19,1.19,0,0,1-.53-.13,1.66,1.66,0,0,1-.44-.35,1.79,1.79,0,0,1-.4-1.12,1.78,1.78,0,0,1,.11-.61,1.58,1.58,0,0,1,.29-.51,1.48,1.48,0,0,1,.44-.35,1.13,1.13,0,0,1,1.17.07,1.66,1.66,0,0,1,.48.51l.68-.47A2.21,2.21,0,0,0,68,77.4a1.89,1.89,0,0,0-1-.3,1.92,1.92,0,0,0-.84.2,2.17,2.17,0,0,0-.69.52,2.75,2.75,0,0,0-.47.78,2.71,2.71,0,0,0-.17,1,2.66,2.66,0,0,0,.17.94,2.75,2.75,0,0,0,.47.78,2.32,2.32,0,0,0,.69.52A1.91,1.91,0,0,0,67,82a2.08,2.08,0,0,0,.78-.15,2.14,2.14,0,0,0,1.11-1.08,2.49,2.49,0,0,0,.22-.82v-.16a1.41,1.41,0,0,1,0-.2v-.25H66.66Z" style="fill:#bcbcbc"/><polygon points="72.82 81.08 70.54 81.08 70.54 79.98 72.56 79.98 72.56 79.16 70.54 79.16 70.54 77.98 72.82 77.98 72.82 77.19 69.74 77.19 69.74 81.89 72.82 81.89 72.82 81.08" style="fill:#bcbcbc"/><polygon points="75.62 79.91 73.57 77.19 73.52 77.19 73.52 81.89 74.31 81.89 74.31 79.51 75.62 81.28 76.93 79.51 76.93 81.89 77.73 81.89 77.73 77.19 77.67 77.19 75.62 79.91" style="fill:#bcbcbc"/><polygon points="78.65 81.89 81.73 81.89 81.73 81.08 79.45 81.08 79.45 79.98 81.47 79.98 81.47 79.16 79.45 79.16 79.45 77.98 81.73 77.98 81.73 77.19 78.65 77.19 78.65 81.89" style="fill:#bcbcbc"/><polygon points="85.39 80.03 82.64 77.19 82.55 77.19 82.55 81.89 83.35 81.89 83.35 79.1 86.1 81.89 86.19 81.89 86.19 77.19 85.39 77.19 85.39 80.03" style="fill:#bcbcbc"/><polygon points="86.73 77.19 86.73 77.98 87.93 77.98 87.93 81.89 88.73 81.89 88.73 77.98 89.93 77.98 89.93 77.19 86.73 77.19" style="fill:#bcbcbc"/><path d="M11.14,88.39a.21.21,0,0,1,0-.06,4.87,4.87,0,0,0,.35-.62l.13-.25-.7-.38a1.25,1.25,0,0,1-.1.21,4.79,4.79,0,0,1-.3.53l-.5-.59a2.79,2.79,0,0,0,.38-.3,1.14,1.14,0,0,0,.26-.36,1.35,1.35,0,0,0,.11-.52,1.25,1.25,0,0,0-.1-.51,1.23,1.23,0,0,0-.28-.43,1.1,1.1,0,0,0-.43-.25,1.06,1.06,0,0,0-.47,0,1.13,1.13,0,0,0-.45.2,1.19,1.19,0,0,0-.31.36,1.17,1.17,0,0,0-.15.49,1.56,1.56,0,0,0,0,.61,2,2,0,0,0,.29.56l-.17.13-.16.14a1.81,1.81,0,0,0-.39.54,1.21,1.21,0,0,0-.09.67,1.08,1.08,0,0,0,.14.48,1.13,1.13,0,0,0,.28.37,1.09,1.09,0,0,0,.39.23,1.39,1.39,0,0,0,.46.07l.19,0,.28-.09a2.23,2.23,0,0,0,.32-.19,1.91,1.91,0,0,0,.38-.3l.53.62.6-.52-.61-.73A.09.09,0,0,1,11.14,88.39ZM9.48,85.63a.33.33,0,0,1,.26-.09.37.37,0,0,1,.24.1.41.41,0,0,1,.1.27.68.68,0,0,1-.18.48l-.15.15-.17.12a1.29,1.29,0,0,1-.18-.33A.86.86,0,0,1,9.34,86,.46.46,0,0,1,9.48,85.63Zm.5,3a1.11,1.11,0,0,1-.16.12.75.75,0,0,1-.2.1.88.88,0,0,1-.24,0,.55.55,0,0,1-.33-.14.48.48,0,0,1-.15-.31.88.88,0,0,1,0-.23A1.62,1.62,0,0,1,9,88,.63.63,0,0,1,9,87.92a.17.17,0,0,1,.06-.06l.27-.21.74.87Z" style="fill:#bcbcbc"/><polygon points="16.39 87.62 14.34 84.91 14.29 84.91 14.29 89.61 15.09 89.61 15.09 87.23 16.39 89 17.7 87.23 17.7 89.61 18.5 89.61 18.5 84.91 18.45 84.91 16.39 87.62" style="fill:#bcbcbc"/><path d="M21.06,84.91l-2.14,4.7h.87l.32-.74h2l.33.74h.87l-2.14-4.7Zm-.56,3.18.6-1.43.59,1.43Z" style="fill:#bcbcbc"/><path d="M26.65,87.46a1.8,1.8,0,0,0,.24-.94,2,2,0,0,0-.11-.65,1.58,1.58,0,0,0-.29-.51A1.28,1.28,0,0,0,26,85a1.41,1.41,0,0,0-.59-.12h-1.9v4.71h.8v-1.5h.8l.47.76.49.74h1c-.34-.53-.69-1.06-1-1.58A1.44,1.44,0,0,0,26.65,87.46Zm-1-.19a.62.62,0,0,1-.23,0h-1.1V85.7h1.1A.54.54,0,0,1,26,86a.62.62,0,0,1,.09.27,1.12,1.12,0,0,1,0,.24.91.91,0,0,1-.06.35.87.87,0,0,1-.15.25A.8.8,0,0,1,25.67,87.27Z" style="fill:#bcbcbc"/><polygon points="31.11 84.91 30.12 84.91 28.46 87.29 28.46 84.9 27.66 84.9 27.66 89.61 28.46 89.61 28.46 87.47 30.21 89.61 31.27 89.61 29.39 87.34 31.11 84.91" style="fill:#bcbcbc"/><polygon points="31.86 89.61 34.94 89.61 34.94 88.8 32.66 88.8 32.66 87.69 34.68 87.69 34.68 86.88 32.66 86.88 32.66 85.7 34.94 85.7 34.94 84.9 31.86 84.9 31.86 89.61" style="fill:#bcbcbc"/><polygon points="35.33 85.7 36.53 85.7 36.53 89.61 37.33 89.61 37.33 85.7 38.53 85.7 38.53 84.9 35.33 84.9 35.33 85.7" style="fill:#bcbcbc"/><rect x="39.19" y="84.91" width="0.8" height="4.7" style="fill:#bcbcbc"/><polygon points="43.86 87.75 41.11 84.91 41.02 84.91 41.02 89.61 41.82 89.61 41.82 86.81 44.57 89.61 44.66 89.61 44.66 84.91 43.86 84.91 43.86 87.75" style="fill:#bcbcbc"/><path d="M47.22,87.85h1.54a1.07,1.07,0,0,1-.18.41,1.43,1.43,0,0,1-.28.32,1.36,1.36,0,0,1-.37.21,1.16,1.16,0,0,1-.42.07,1.07,1.07,0,0,1-.53-.13,1.48,1.48,0,0,1-.44-.35,1.58,1.58,0,0,1-.29-.51,1.74,1.74,0,0,1-.11-.61,1.79,1.79,0,0,1,.4-1.12,1.66,1.66,0,0,1,.44-.35,1.19,1.19,0,0,1,.53-.13,1.09,1.09,0,0,1,.64.21,1.53,1.53,0,0,1,.48.5l.68-.46a2.24,2.24,0,0,0-.76-.8,2,2,0,0,0-1-.29,1.91,1.91,0,0,0-.84.19,2.36,2.36,0,0,0-.69.53,2.84,2.84,0,0,0-.47.77,2.75,2.75,0,0,0-.17,1,2.71,2.71,0,0,0,.17.95A2.84,2.84,0,0,0,46,89a2.36,2.36,0,0,0,.69.53,2.06,2.06,0,0,0,.84.19,1.91,1.91,0,0,0,.78-.16,2.13,2.13,0,0,0,.65-.42,2.23,2.23,0,0,0,.46-.66,2.42,2.42,0,0,0,.22-.82v-.15a1.34,1.34,0,0,1,0-.2V87H47.22Z" style="fill:#bcbcbc"/><path d="M55.17,87.35a1.42,1.42,0,0,0-.3-.25,2.63,2.63,0,0,0-.35-.15,2.34,2.34,0,0,0-.33-.09l-.29-.07-.33-.09a1.42,1.42,0,0,1-.31-.11.6.6,0,0,1-.24-.16.32.32,0,0,1-.09-.24A.41.41,0,0,1,53,86a.6.6,0,0,1,.19-.16,1.06,1.06,0,0,1,.25-.09l.24,0a1.39,1.39,0,0,1,.57.12,2.51,2.51,0,0,1,.57.35l.45-.7a3.36,3.36,0,0,0-.36-.27,2,2,0,0,0-.35-.19,2.11,2.11,0,0,0-.38-.11,2.23,2.23,0,0,0-.47,0,2.13,2.13,0,0,0-.55.07,1.36,1.36,0,0,0-.51.22,1.23,1.23,0,0,0-.38.43,1.4,1.4,0,0,0-.15.68,1.5,1.5,0,0,0,.08.5,1.65,1.65,0,0,0,.22.36,1.79,1.79,0,0,0,.31.25,2.72,2.72,0,0,0,.35.16l.34.09.3.06.36.09a1.17,1.17,0,0,1,.3.11.49.49,0,0,1,.21.16.4.4,0,0,1,.07.24.42.42,0,0,1-.05.22.43.43,0,0,1-.15.2.68.68,0,0,1-.25.14,1,1,0,0,1-.35.06,1.49,1.49,0,0,1-.7-.18,4.41,4.41,0,0,1-.64-.42l-.44.72.38.28a2.5,2.5,0,0,0,.39.23,2,2,0,0,0,.45.14,2.52,2.52,0,0,0,.58.06,2.15,2.15,0,0,0,.64-.09,1.34,1.34,0,0,0,.5-.27,1.11,1.11,0,0,0,.33-.44,1.59,1.59,0,0,0,.11-.64,1.46,1.46,0,0,0-.08-.54A1,1,0,0,0,55.17,87.35Z" style="fill:#bcbcbc"/><polygon points="56.14 89.61 59.22 89.61 59.22 88.8 56.94 88.8 56.94 87.69 58.97 87.69 58.97 86.88 56.94 86.88 56.94 85.7 59.22 85.7 59.22 84.9 56.14 84.9 56.14 89.61" style="fill:#bcbcbc"/><path d="M63.15,87.46a1.8,1.8,0,0,0,.24-.94,2,2,0,0,0-.11-.65,1.58,1.58,0,0,0-.29-.51,1.28,1.28,0,0,0-.46-.34A1.37,1.37,0,0,0,62,84.9h-1.9v4.71h.8v-1.5h.79l.48.76.49.74h1c-.34-.53-.69-1.06-1-1.58A1.44,1.44,0,0,0,63.15,87.46Zm-1-.19a.6.6,0,0,1-.22,0h-1.1V85.7H62a.54.54,0,0,1,.33.09.6.6,0,0,1,.2.22,1.07,1.07,0,0,1,.09.27,2.32,2.32,0,0,1,0,.24.91.91,0,0,1-.06.35.87.87,0,0,1-.15.25A.8.8,0,0,1,62.17,87.27Z" style="fill:#bcbcbc"/><polygon points="65.55 87.64 64.42 84.91 63.54 84.91 65.53 89.61 65.57 89.61 67.56 84.91 66.68 84.91 65.55 87.64" style="fill:#bcbcbc"/><rect x="68.16" y="84.91" width="0.8" height="4.7" style="fill:#bcbcbc"/><path d="M71,86.14a1.61,1.61,0,0,1,.43-.35,1.26,1.26,0,0,1,.54-.13,1,1,0,0,1,.34.06,1.37,1.37,0,0,1,.32.16,2,2,0,0,1,.27.24,1.54,1.54,0,0,1,.21.29l.75-.34a2,2,0,0,0-.34-.51,2.32,2.32,0,0,0-.44-.39,2,2,0,0,0-.53-.25,1.94,1.94,0,0,0-1.42.1,2.32,2.32,0,0,0-.69.52,2.54,2.54,0,0,0-.47.78,2.66,2.66,0,0,0-.17.94,2.71,2.71,0,0,0,.17.95,2.61,2.61,0,0,0,.47.77,2.36,2.36,0,0,0,.69.53,2,2,0,0,0,.84.19,1.85,1.85,0,0,0,.58-.09,2.35,2.35,0,0,0,.53-.25,2.07,2.07,0,0,0,.44-.4,2,2,0,0,0,.34-.51l-.75-.34a1.94,1.94,0,0,1-.21.29,1.2,1.2,0,0,1-.27.24,1.41,1.41,0,0,1-.32.17,1.27,1.27,0,0,1-.34,0,1.13,1.13,0,0,1-.54-.13,1.44,1.44,0,0,1-.43-.35,1.58,1.58,0,0,1-.29-.51,1.74,1.74,0,0,1-.11-.61,1.79,1.79,0,0,1,.4-1.12Z" style="fill:#bcbcbc"/><polygon points="74.44 89.61 77.52 89.61 77.52 88.8 75.24 88.8 75.24 87.69 77.26 87.69 77.26 86.88 75.24 86.88 75.24 85.7 77.52 85.7 77.52 84.9 74.44 84.9 74.44 89.61" style="fill:#bcbcbc"/><path d="M81.26,87.35A1.26,1.26,0,0,0,81,87.1a2.52,2.52,0,0,0-.34-.15l-.34-.09L80,86.79l-.33-.09a1.51,1.51,0,0,1-.32-.11.63.63,0,0,1-.23-.16.32.32,0,0,1-.09-.24.4.4,0,0,1,.07-.24.64.64,0,0,1,.2-.16.92.92,0,0,1,.25-.09l.23,0a1.47,1.47,0,0,1,.58.12,3,3,0,0,1,.57.35l.44-.7a3.36,3.36,0,0,0-.36-.27,1.93,1.93,0,0,0-.34-.19,2.22,2.22,0,0,0-.39-.11,2.17,2.17,0,0,0-.47,0,2.11,2.11,0,0,0-.54.07,1.41,1.41,0,0,0-.52.22,1.23,1.23,0,0,0-.38.43,1.4,1.4,0,0,0-.14.68,1.28,1.28,0,0,0,.08.5,1.34,1.34,0,0,0,.22.36,1.26,1.26,0,0,0,.31.25,2.21,2.21,0,0,0,.35.16,2.14,2.14,0,0,0,.34.09l.29.06.36.09a1.25,1.25,0,0,1,.31.11.53.53,0,0,1,.2.16.41.41,0,0,1,.08.24.54.54,0,0,1-.05.22.53.53,0,0,1-.16.2.68.68,0,0,1-.25.14.9.9,0,0,1-.34.06,1.43,1.43,0,0,1-.7-.18,5.12,5.12,0,0,1-.65-.42l-.44.72.38.28a2.5,2.5,0,0,0,.39.23,2.06,2.06,0,0,0,.46.14,2.37,2.37,0,0,0,.57.06,2.22,2.22,0,0,0,.65-.09,1.42,1.42,0,0,0,.5-.27,1.09,1.09,0,0,0,.32-.44,1.59,1.59,0,0,0,.12-.64,1.71,1.71,0,0,0-.08-.54A1.21,1.21,0,0,0,81.26,87.35Z" style="fill:#bcbcbc"/><path d="M76.59,20.93l-4.09,4.9a28.78,28.78,0,1,1-8.56-13.1L48.22,31.43l-3.36,3.94,0,0-13.64-16h-.34V50.81h5.32V33.07l8.66,10.45,0,0,.77-.92,7.92-9.33V50.81h5.32V27l3-3.51,9.39-11.28a34.16,34.16,0,1,0,5.36,8.74Z" style="fill:#bcbcbc"/></g></g></svg>