<svg xmlns="http://www.w3.org/2000/svg" viewBox="0 0 83.71 68.56"><title>Asset 6</title><g id="Layer_2" data-name="Layer 2"><g id="Layer_1-2" data-name="Layer 1"><path d="M.82,2.68H15.65L14.58,7.46H6.89v7.2l.6-2.27,6.42-.45L13,16.88l-6.14.54v7.29l-5,1.05V8.58L4.26,7.46H0Z" style="fill:#bcbcbc"/><path d="M14.29,32c2.95.7,4.52,2.89,4.69,6.58H14.57c0-1.17-.79-1.7-2.25-1.58H6.4a18,18,0,0,0-1.93,6,6.44,6.44,0,0,0,1,3.82A7.49,7.49,0,0,0,8,49.39a6.27,6.27,0,0,0,3.69.52c1.57-.15,3-1.16,4.35-3l3,3.71A20.09,20.09,0,0,1,14.8,54a9.5,9.5,0,0,1-4.27.87,10.57,10.57,0,0,1-4.85-1,10.4,10.4,0,0,1-4-3.95A10.93,10.93,0,0,1,0,43.25c.13-2.46.45-4,1-4.74L4.3,37h-4L.6,35.44,1,33.93,1.72,32Z" style="fill:#bcbcbc"/><path d="M21.67,32.05h5v7.72L34,39.72V32.11l5,0V54.23s-3.86.74-4.92.91V44.52L28,44.5,26.7,42.39v11.9l-5,.85Z" style="fill:#bcbcbc"/><path d="M47.33,31.93v2.18l1.3-2.18h11q2,.57,1.91,5.73v15c-.26,1.22-1.3,1.86-3.11,1.91H45.72c-1.89.08-3-.74-3.28-2.46V33Zm0,4.91V49.66h9.29V36.84Z" style="fill:#bcbcbc"/><path d="M64.85,32h9.08l-.67,4.8H71.8V50h1.86l-.27,4.65H64.32L64.77,50h2l0-12,2.1-1.18H64.37Z" style="fill:#bcbcbc"/><polygon points="54.47 2.57 37.73 2.57 36.9 7.43 43.11 7.43 45.56 7.42 43.12 8.58 43.11 8.57 43.09 25.59 48.26 25.59 48.26 7.43 53.88 7.43 54.47 2.57" style="fill:#bcbcbc"/><polygon points="22.65 22.76 25.22 25.53 29.93 20.8 27.38 18 22.65 22.76" style="fill:#bcbcbc"/><polygon points="29.32 2.65 22.11 2.65 20.24 7.45 22.1 7.45 24.12 7.45 21.67 8.56 15.61 24.43 20.09 25.79 26.63 7.73 32.49 25.93 36.91 24.41 29.32 2.65" style="fill:#bcbcbc"/><path d="M70.54,0A13.17,13.17,0,1,0,83.71,13.17,13.17,13.17,0,0,0,70.54,0Zm2,3.16a7.76,7.76,0,0,1,5.3,3.29l-1.08.89a6.37,6.37,0,0,0-4.5-2.8,7.89,7.89,0,0,0-4.88.87l-.7-1.22A9.33,9.33,0,0,1,72.55,3.16ZM67.43,5.47A8.84,8.84,0,0,1,72.36,7a8.79,8.79,0,0,0,1.29.66,5,5,0,0,0,5-.85l.18-.13.8,1.15-.16.11a6.28,6.28,0,0,1-6.32,1,9.93,9.93,0,0,1-1.52-.78,7.54,7.54,0,0,0-4.22-1.31,9.13,9.13,0,0,0-5.17,2l-.91-1.06A10.35,10.35,0,0,1,67.43,5.47ZM76,23.35H65.06L59.7,10.24H81.36Z" style="fill:#bcbcbc"/><path d="M66.45,15.64a.29.29,0,0,1-.22.12.37.37,0,0,1-.19-.07.3.3,0,0,1-.14-.24.27.27,0,0,1,.08-.19,3,3,0,0,0,.7-1.48.23.23,0,0,1,.25-.21H67a.25.25,0,0,1,.24.24v0c0,.15-.08.3-.13.45a2.69,2.69,0,0,0,.53.58.23.23,0,0,1,.1.19.29.29,0,0,1-.09.21.26.26,0,0,1-.2.1.2.2,0,0,1-.15-.06,3.14,3.14,0,0,1-.4-.45A4.87,4.87,0,0,1,66.45,15.64Zm2.87,1.89a.53.53,0,0,1,.58.51.75.75,0,0,1-.08.31,6.29,6.29,0,0,1-1,1.49,5.94,5.94,0,0,0,3.3.79h.42c.82,0,1.73,0,2.55-.11h0a.34.34,0,0,1,.34.36v0a.37.37,0,0,1-.37.39c-.7,0-1.46.05-2.23.05h-.68a5.86,5.86,0,0,1-3.86-1,6.86,6.86,0,0,1-1.85,1.14.4.4,0,0,1-.15,0,.35.35,0,0,1-.32-.2.46.46,0,0,1,0-.2.29.29,0,0,1,.18-.28,6.54,6.54,0,0,0,1.69-1A5.76,5.76,0,0,1,67,18.72a4.55,4.55,0,0,1-.59.56.24.24,0,0,1-.18.07.35.35,0,0,1-.28-.17.35.35,0,0,1-.07-.21.33.33,0,0,1,.14-.26,4.3,4.3,0,0,0,1.28-1.56.32.32,0,0,1,.28-.17.38.38,0,0,1,.17,0,.28.28,0,0,1,.18.25.37.37,0,0,1,0,.17.41.41,0,0,1,0,.09Zm-3.08-4.06c-.17,0-.27-.12-.27-.31s.1-.3.27-.3H67.9v-.51c0-.15.12-.24.32-.24s.29.09.29.24v.51h1.4c.17,0,.27.1.27.3s-.1.31-.27.31h-1.4v1.78a4.77,4.77,0,0,0,1.61,1.24.25.25,0,0,1,.14.24.38.38,0,0,1-.07.22.28.28,0,0,1-.23.14.44.44,0,0,1-.21-.07,4.63,4.63,0,0,1-1.28-1.12,3.73,3.73,0,0,1,0,.59v.32c0,.13-.1.25-.31.25a.27.27,0,0,1-.3-.25v-.34a3.36,3.36,0,0,1,0-.57,5.43,5.43,0,0,1-1.48,1.33.33.33,0,0,1-.48-.11.41.41,0,0,1,0-.19.36.36,0,0,1,0-.1.26.26,0,0,1,.15-.16,5.38,5.38,0,0,0,1.79-1.44V13.47ZM67.5,18.1l0,.06,0,0a4.28,4.28,0,0,0,.84,1.22,6.06,6.06,0,0,0,.82-1.1.22.22,0,0,0,0-.1c0-.07-.06-.11-.16-.11Zm1.62-2.8a.28.28,0,0,1-.2.09.31.31,0,0,1-.19-.08.33.33,0,0,1-.11-.22.26.26,0,0,1,.09-.19,2.18,2.18,0,0,0,.49-1.12.24.24,0,0,1,.25-.21h.07a.25.25,0,0,1,.24.23.13.13,0,0,1,0,.06,6.09,6.09,0,0,1-.17.61,3.83,3.83,0,0,0,.63.64.29.29,0,0,1,.11.22.32.32,0,0,1-.08.2.25.25,0,0,1-.2.09.26.26,0,0,1-.18-.07,4.08,4.08,0,0,1-.52-.59Zm6,3.72c0,.55-.28.77-.84.77H71.35c-.55,0-.84-.22-.84-.77V15c0-.55.29-.78.84-.78h.76a4.48,4.48,0,0,0,.33-.93H70.57A.28.28,0,0,1,70.3,13c0-.2.1-.34.27-.34h4.55c.17,0,.26.14.26.34s-.09.32-.26.32h-2c-.1.32-.22.62-.35.93h1.47c.56,0,.84.23.84.78Zm-4-.09c0,.2.1.25.29.25h.33V14.84h-.33c-.19,0-.29.05-.29.26Zm1.2-4.09v1h.87v-1Zm.87,2.61v-1h-.87v1Zm0,1.73V18h-.87v1.17Zm1.22-4.08c0-.21-.1-.26-.29-.26h-.35v4.34h.35c.19,0,.29-.05.29-.25Z" style="fill:#bcbcbc"/><path d="M2.25,67.94a7.7,7.7,0,0,0,.09-1.34V62.91a8,8,0,0,0-.09-1.33h1v.8a2.83,2.83,0,0,1,0,.51,2.56,2.56,0,0,1,2.38-1.43,2.14,2.14,0,0,1,1.89.89,2.33,2.33,0,0,1,.33,1.35v2.92a7.78,7.78,0,0,0,.09,1.32H6.81A9.41,9.41,0,0,0,6.9,66.6V63.86c0-1.07-.51-1.63-1.44-1.63a2.06,2.06,0,0,0-1.69.93,2.46,2.46,0,0,0-.54,1.17V66.6a9.47,9.47,0,0,0,.08,1.34Z" style="fill:#bcbcbc"/><path d="M8.4,68.39H6.3l.06-.51a8.89,8.89,0,0,0,.08-1.28V63.86c0-1-.52-1.18-1-1.18a1.61,1.61,0,0,0-1.33.76,2.06,2.06,0,0,0-.45.93V66.6a8.89,8.89,0,0,0,.08,1.28l.07.51H1.72l.08-.52a7,7,0,0,0,.09-1.27V62.91a7.18,7.18,0,0,0-.09-1.26l-.08-.52h2v.48A3,3,0,0,1,5.57,61,2.57,2.57,0,0,1,7.84,62.1a2.85,2.85,0,0,1,.41,1.6v2.92a8.72,8.72,0,0,0,.07,1.25Zm-1.08-.91h0c0-.14,0-.29,0-.46C7.34,67.18,7.33,67.33,7.32,67.48Zm-4.56,0h.05c0-.1,0-.21,0-.32ZM6.83,62.3a2.13,2.13,0,0,1,.51,1.26,1.86,1.86,0,0,0-.26-1A1.41,1.41,0,0,0,6.83,62.3ZM2.76,62a.76.76,0,0,1,0,.15V62Z" style="fill:#bcbcbc"/><path d="M15.73,64.76a3,3,0,0,1,3.15-3.33,3.34,3.34,0,0,1,0,6.66A3,3,0,0,1,15.73,64.76Zm.91,0c0,1.6.86,2.58,2.24,2.58s2.23-1,2.23-2.57-.85-2.58-2.21-2.58S16.64,63.15,16.64,64.74Z" style="fill:#bcbcbc"/><path d="M18.89,68.54a3.46,3.46,0,0,1-3.61-3.78A3.47,3.47,0,0,1,18.88,61a3.79,3.79,0,0,1,0,7.57Zm0-5.92c-1.15,0-1.81.77-1.81,2.12s.65,2.13,1.79,2.13,1.77-.77,1.77-2.12S20,62.62,18.9,62.62Zm-2.71,1.93a1.48,1.48,0,0,0,0,.21A3.87,3.87,0,0,0,16.37,66a4,4,0,0,1-.19-1.25C16.18,64.68,16.19,64.62,16.19,64.55Zm5.36-.18c0,.12,0,.25,0,.38s0,.33,0,.48c0-.15,0-.31,0-.48S21.56,64.49,21.55,64.37Z" style="fill:#bcbcbc"/><path d="M29.59,64.76a3.15,3.15,0,1,1,3.16,3.33A3,3,0,0,1,29.59,64.76Zm.91,0c0,1.6.86,2.58,2.24,2.58s2.23-1,2.23-2.57-.85-2.58-2.21-2.58S30.5,63.15,30.5,64.74Z" style="fill:#bcbcbc"/><path d="M32.75,68.54a3.79,3.79,0,0,1,0-7.57,3.79,3.79,0,0,1,0,7.57Zm0-5.92c-1.15,0-1.81.77-1.81,2.12s.65,2.13,1.79,2.13,1.77-.77,1.77-2.12S33.86,62.62,32.76,62.62Zm-2.71,1.93a1.48,1.48,0,0,0,0,.21A3.87,3.87,0,0,0,30.23,66,4,4,0,0,1,30,64.74,1.28,1.28,0,0,1,30.05,64.55Zm5.35-.18c0,.12,0,.25,0,.38a3.64,3.64,0,0,1,0,.48,3.64,3.64,0,0,0,0-.48A2.36,2.36,0,0,0,35.4,64.37Z" style="fill:#bcbcbc"/><path d="M48.73,67.36a4,4,0,0,1,0-.58,2.65,2.65,0,0,1-2.4,1.27c-1.82,0-2.92-1.25-2.92-3.3s1.13-3.3,2.9-3.3a2.72,2.72,0,0,1,2.42,1.25l0-.18a4.16,4.16,0,0,1,0-.62V60.32A10.78,10.78,0,0,0,48.64,59h1a9.51,9.51,0,0,0-.08,1.33v6.28a9.13,9.13,0,0,0,.08,1.36h-.94Zm-4.35-2.63a3.06,3.06,0,0,0,.48,1.84,2,2,0,0,0,1.58.71,2.28,2.28,0,0,0,2.27-2.56,2.63,2.63,0,0,0-.66-1.88,2.29,2.29,0,0,0-1.61-.62C45.16,62.22,44.38,63.16,44.38,64.73Z" style="fill:#bcbcbc"/><path d="M46.37,68.51c-2.08,0-3.38-1.44-3.38-3.76S44.31,61,46.35,61a3.33,3.33,0,0,1,1.91.54V60.32A10.35,10.35,0,0,0,48.19,59l-.07-.51h2.07l-.07.51A8.93,8.93,0,0,0,50,60.3v6.28a9.51,9.51,0,0,0,.08,1.3l.07.51H48.28V68A3.24,3.24,0,0,1,46.37,68.51Zm.07-5.84c-1.45,0-1.61,1.44-1.61,2.06a2.7,2.7,0,0,0,.39,1.56,1.49,1.49,0,0,0,1.22.53c1.12,0,1.81-.8,1.81-2.1a2.16,2.16,0,0,0-.52-1.55A1.84,1.84,0,0,0,46.44,62.67Zm-2.29.66a3.83,3.83,0,0,0-.25,1.42,3.65,3.65,0,0,0,.3,1.56,4.17,4.17,0,0,1-.28-1.58A4,4,0,0,1,44.15,63.33Zm5,1.82a1.93,1.93,0,0,1,0,.27l0-.06Zm0-1.07,0,.21v-.16Zm0-4.65c0,.07,0,.13,0,.21a1.48,1.48,0,0,1,0-.21Z" style="fill:#bcbcbc"/><path d="M58.91,59a8.54,8.54,0,0,0-.08,1.33v6.32a9.27,9.27,0,0,0,.08,1.32H57.85a8.83,8.83,0,0,0,.08-1.32V60.29A8.49,8.49,0,0,0,57.85,59Z" style="fill:#bcbcbc"/><path d="M59.42,68.39H57.33l.07-.52a9.38,9.38,0,0,0,.08-1.25V60.29A8.39,8.39,0,0,0,57.4,59l-.07-.51h2.1l-.07.51a8.44,8.44,0,0,0-.08,1.27v6.32a8,8,0,0,0,.08,1.26Zm-1.07-.91h0c0-.15,0-.3,0-.46Zm0-8.05c0,.14,0,.28,0,.44,0-.16,0-.3,0-.44Z" style="fill:#bcbcbc"/><path d="M67.67,64.89a2.68,2.68,0,0,0,.47,1.65,2,2,0,0,0,1.67.81A1.92,1.92,0,0,0,71.75,66l.83.33a3.08,3.08,0,0,1-.65,1,3,3,0,0,1-2.14.82c-1.85,0-3-1.3-3-3.34s1.16-3.33,2.93-3.33A2.78,2.78,0,0,1,72.55,64c0,.12.06.58.09.9Zm4-.74a2.14,2.14,0,0,0-.62-1.45,1.94,1.94,0,0,0-1.39-.53,1.86,1.86,0,0,0-1.68,1,2.59,2.59,0,0,0-.29,1Z" style="fill:#bcbcbc"/><path d="M69.79,68.56c-2.11,0-3.47-1.49-3.47-3.8S67.68,61,69.7,61a3.25,3.25,0,0,1,3.3,3l0,.17c0,.2,0,.53.07.77l0,.49h-5a1.75,1.75,0,0,0,.35.92,1.51,1.51,0,0,0,1.3.62,1.49,1.49,0,0,0,1.52-1.08l.16-.44,1.7.68-.2.43a3.22,3.22,0,0,1-.74,1.12A3.42,3.42,0,0,1,69.79,68.56ZM68.27,63.7h2.88a1.5,1.5,0,0,0-.4-.68,1.46,1.46,0,0,0-1.07-.4,1.39,1.39,0,0,0-1.28.79A1.23,1.23,0,0,0,68.27,63.7Z" style="fill:#bcbcbc"/></g></g></svg>