<svg xmlns="http://www.w3.org/2000/svg" viewBox="0 0 84.94 84.93"><title>Asset 8</title><g id="Layer_2" data-name="Layer 2"><g id="Layer_1-2" data-name="Layer 1"><path d="M42.45,84.93A42.47,42.47,0,1,1,84.94,42.84,42.5,42.5,0,0,1,42.45,84.93ZM.28,42.46A42.2,42.2,0,1,0,42.46.27,42.18,42.18,0,0,0,.28,42.46Z" style="fill:#bcbcbc"/><path d="M12.23,42.46a30.27,30.27,0,1,1,60.53.28,29.23,29.23,0,0,1-8.85,21.1,29.3,29.3,0,0,1-21.43,8.9A29.54,29.54,0,0,1,20.8,63.59,29.9,29.9,0,0,1,12.23,42.46ZM15.7,29.11c-.12.14-.32.27-.15.49s.06.27-.13.35a.65.65,0,0,0-.33.28,29.63,29.63,0,0,0-2.2,7.25c0,.2-.05.4-.08.64a5.9,5.9,0,0,1,5.31.45,5.25,5.25,0,0,1-5.37.38c-.55,1.24-.16,7.82.66,10.95a29.69,29.69,0,0,0,5.41,11l1.32-.62c.1,0,.27-.12.27-.17,0-.25.19-.23.32-.27s.57-.05.75-.19a2.57,2.57,0,0,1,1.18-.38c1.68-.3,3.38-.58,5.07-.87,1.46-.26,2.91-.53,4.37-.77.76-.13,1.51-.21,2.27-.32l1.05-.21V57a.94.94,0,0,0-.38-.1c-.49.05-1,.14-1.46.21a1.84,1.84,0,0,1-.33,0V57l1.1-.28-.2-.35c.36.15.64.45,1.07.14a6,6,0,0,0-.66-.39,1.85,1.85,0,0,1-1-1.14c-.34-.81,0-1.65-.18-2.46l.58,1.21c.06-.11.08-.13.08-.15A8.36,8.36,0,0,0,32.41,50a1.11,1.11,0,0,1-.09-1.47,4.15,4.15,0,0,1,.57.53,7.38,7.38,0,0,1,.77,1.25c.32.73.55,1.5.83,2.24a8.9,8.9,0,0,0,2.3,3.53.3.3,0,0,0,.45,0c-.13-.23-.26-.45-.38-.68a36.65,36.65,0,0,1-1.94-5A11.29,11.29,0,0,0,33,46.86a3.7,3.7,0,0,0-2.21-1.52,1,1,0,0,1-.76-.47c-.36-.49-.66-.58-1.06-.31a1.4,1.4,0,0,1-.93.25.74.74,0,0,0-.79.59,4.57,4.57,0,0,0-.12.74,1.1,1.1,0,0,1-.9,1.1,3.14,3.14,0,0,1-.75,0,.72.72,0,0,0-.79.52c-.05.29-.2.32-.44.32s-.55.05-.78.07a.39.39,0,0,1,.19-.11,2.35,2.35,0,0,1,.53,0c.23,0,.41-.05.47-.31s.1-.45.17-.75l-.91.06a1.07,1.07,0,0,1,.78-.22c.46,0,.92,0,1.38.06a.69.69,0,0,0,.77-.67c0-.12,0-.25,0-.38,0-1,.38-1.28,1.31-1.44A4.93,4.93,0,0,0,29.34,44c.13-.06.19-.27.28-.41a1.83,1.83,0,0,0-.42-.21c-.27,0-.45-.12-.52-.43a.88.88,0,0,0-.33-.49c-.35-.22-.74-.38-1.12-.57a2.06,2.06,0,0,0-2.06-.17.24.24,0,0,1-.23-.06.26.26,0,0,1,0-.25c.21-.24.43-.46.65-.68a.63.63,0,0,0,.89.29,2.49,2.49,0,0,1-.16-.33,2.45,2.45,0,0,1-.25-.75c0-.51-.41-.86-.49-1.34l0,0c-.35-.24-.65-.56-1.15-.48-.21,0-.26,0-.31-.23l.3.11.06-.11a2.69,2.69,0,0,0-.32-.27c-.13-.08-.31-.09-.42-.18A2.28,2.28,0,0,0,21.88,37a.66.66,0,0,1-.73-.22,2.12,2.12,0,0,0,.76.11,2.52,2.52,0,0,1,2.28.5,3.86,3.86,0,0,0,1.66.71,2.55,2.55,0,0,0-.28-.71,1.08,1.08,0,0,1-.21-.91,10.36,10.36,0,0,0,.09-1.47,2.51,2.51,0,0,0-.78-1.89,2.11,2.11,0,0,1-.2-.29l.09-.08a4.77,4.77,0,0,1,.64.55,2.78,2.78,0,0,1,.54,1.48,5.78,5.78,0,0,0,.12.57H26l.2-.3c.47-.65.91-1.33,1.42-2a.68.68,0,0,1,1-.08c-.16,0-.38-.09-.52,0a3.6,3.6,0,0,0-1.34,1.59c.33,0,.62-.27.85,0a1.78,1.78,0,0,0-.53.09,1.59,1.59,0,0,0-.79,1,1.77,1.77,0,0,0,.36,1.73L27.54,36a1.17,1.17,0,0,1,0,.24,4.3,4.3,0,0,1-.56,1,1.29,1.29,0,0,0-.21,1.46c.15.39.36.76.54,1.14,0,.06.05.13.1.23.07-.13.08-.15.08-.17a1.55,1.55,0,0,0,0-.22,1.83,1.83,0,0,1,.89-1.75,2.22,2.22,0,0,0,.53-.53c.22-.33.4-.69.6-1s.49-.83,1-.93c.25-.06.34-.18.32-.42v-.34a2,2,0,0,1,.08.33c0,.11,0,.27.06.32s.22,0,.34,0A2.48,2.48,0,0,0,29.43,37c-.05.11-.1.21-.14.32a2.24,2.24,0,0,1-1.05,1.24,1,1,0,0,0-.42.55,3,3,0,0,0,.53,2.35,1.4,1.4,0,0,0,.47.36c.38.2.77.37,1.22.59l.41-.8.11,0a1.64,1.64,0,0,0,.08,2.06,7.89,7.89,0,0,0,.65,1c.47.57,1,1.1,1.51,1.65l.08-.06a2.33,2.33,0,0,0-.07-.25,3.79,3.79,0,0,1-.25-2.46,2.19,2.19,0,0,0,0-.81,1.8,1.8,0,0,1,.22-1.18c.14-.23.3-.45.45-.68a4.35,4.35,0,0,0,.78-2.81c0-.25-.14-.5.25-.55.06,0,.11-.09.15-.15a1.41,1.41,0,0,0,.26-1.13c-.05-.19-.27-.35-.44-.49a1.15,1.15,0,0,1-.43-1.51,1,1,0,0,0-.06-1.13,2.69,2.69,0,0,0-1-.81,11.7,11.7,0,0,0-2.09-.63,3.18,3.18,0,0,1-2-1,2.6,2.6,0,0,1-.47-2.4.53.53,0,0,1,.08.24,4.5,4.5,0,0,0,.07.63c0,.09.13.16.2.24.07-.07.15-.13.21-.2a2.26,2.26,0,0,0,.13-.2l.1,0a3,3,0,0,1-.15.59.56.56,0,0,0,.17.73,3.75,3.75,0,0,0,.73.42,10.67,10.67,0,0,0,3.35.76A1.85,1.85,0,0,1,34.69,33a2.5,2.5,0,0,1-.17,1.38,1.55,1.55,0,0,0-.08.64.63.63,0,0,0,.53.55c.28.09.41-.11.51-.3a7.54,7.54,0,0,0,.59-1.17A1.73,1.73,0,0,0,36,32.53a2.63,2.63,0,0,1-.4-1.65,2.34,2.34,0,0,1,.55-1.34A7.45,7.45,0,0,1,36,30.61a2.17,2.17,0,0,0,.14,1.44c.36.65.76.66,1.16,0,.1-.15.19-.32.29-.48a.35.35,0,0,1,.17.5q-.45,1-.93,1.92l-1.69,3.33a2,2,0,0,0-.12.37,3.73,3.73,0,0,0,2.1-1.18,1.27,1.27,0,0,0,.16-.52c.09-.57.14-1.14.28-1.7a2.24,2.24,0,0,1,.41-.64l.08.05A2.34,2.34,0,0,0,37.81,36a3.57,3.57,0,0,0,2-1.6l.07,0-.25.61A2.09,2.09,0,0,0,41.17,34,1.45,1.45,0,0,0,41,32.26l.07,0c.16.25.32.5.49.75l.48-.26a5.4,5.4,0,0,0-.36.77,2.77,2.77,0,0,1-2,2,5.43,5.43,0,0,0-2.85,2.06,1.13,1.13,0,0,1-.41.29,11.62,11.62,0,0,0-1.13.53.73.73,0,0,0-.36.83l1.74-.32a.31.31,0,0,0,.15-.1,1.78,1.78,0,0,1,1.68-.71,1.22,1.22,0,0,1,.25.07c-.52.19-1.2-.09-1.47.69.25,0,.46,0,.66,0a6,6,0,0,1,.61.12l0,.08h-.21a5.22,5.22,0,0,0-3.47,1.2c-.09.07-.23.17-.24.27a3.28,3.28,0,0,1-.93,1.78.75.75,0,0,0-.15.84,3.89,3.89,0,0,1,1.9-.45.9.9,0,0,1-.34.33,1.23,1.23,0,0,1-.39.07,1.76,1.76,0,0,0-1.49,1.8,7.5,7.5,0,0,0,.8,3s0,0,.07.07c.29-.53.58-1,.85-1.56a.27.27,0,0,0,0-.18,1.52,1.52,0,0,1,.74-1.64,2.3,2.3,0,0,0,.86-.92,4.44,4.44,0,0,0,.75-2,.32.32,0,0,0-.09-.27,1.39,1.39,0,0,0-1.07-.34l-.31,0c.24-.37.58-.19.85-.21,0-.12.05-.2.08-.35.06.56.64,1,1,.73a3.73,3.73,0,0,0,1.68-2.62,4.55,4.55,0,0,1,1.71-3,.77.77,0,0,1,.28-.09c0,.11,0,.23,0,.32-.17.34-.39.66-.57,1a8.62,8.62,0,0,0-.54,1.2,1.63,1.63,0,0,0,0,1.26,3.73,3.73,0,0,1,3.83-.13l-.11.15.4.37,0,.06a5,5,0,0,0-.48-.21c-.42-.13-.83-.28-1.26-.37a1,1,0,0,0-1,.31,7.11,7.11,0,0,0,1.09.44c.35.08.63.17.72.61-.14-.05-.27-.08-.38-.13a7.62,7.62,0,0,1-.69-.38,2.25,2.25,0,0,0-3,.72c-.28.44-.58.86-.87,1.3a1.11,1.11,0,0,0-.09.19c-.21.51-.42,1-.64,1.53,0,.1-.09.19-.15.32l1,0,0,.09-.48.24a3.23,3.23,0,0,0-.78.34c-.34.28-.6.64-.93.94a2.3,2.3,0,0,0-.71,1.85,5.85,5.85,0,0,1,0,1.51,3,3,0,0,0,.13,1.75c.46,1.27.95,2.53,1.44,3.79a4.73,4.73,0,0,0,.36.83,4,4,0,0,0,.6.63s.11,0,.26.06c-.31-.42-.64-.74-.58-1.24.3.28.57.58.84.88a.66.66,0,0,0,.92.16s0,0,0-.06a6,6,0,0,1-1.43-1.53c-.14-.22-.32-.3-.55-.05-.17-.43-.32-.85-.51-1.25a9.16,9.16,0,0,1-.83-5.71,3.9,3.9,0,0,1,1-2,.85.85,0,0,1,.81-.3,5.58,5.58,0,0,0-1,2.46,1.76,1.76,0,0,0,.15,1.48,1.25,1.25,0,0,1,.14.67A10.25,10.25,0,0,0,38.09,53a5.64,5.64,0,0,0,1.72,2.58,1.26,1.26,0,0,0,1,.27,15.53,15.53,0,0,1,1.66-.16c.3,0,.38-.15.41-.39a8.48,8.48,0,0,0,0-2.66.62.62,0,0,1,.11-.46,1.63,1.63,0,0,0,.18-2A9.68,9.68,0,0,1,42.75,49a.4.4,0,0,1,.06-.34,2.18,2.18,0,0,1,.46-.31l-.06-.1a2.45,2.45,0,0,0,.86,2.44,1.84,1.84,0,0,1,.17.22.38.38,0,0,1,0,.53A3,3,0,0,0,43.44,53c0,.39-.11.79-.14,1.18s0,.7,0,1.06.15.32.39.29.65-.05,1-.07.46-.09.42-.48a10.65,10.65,0,0,0-.59-2.73.89.89,0,0,1,0-.66.88.88,0,0,0-.2-1.11c-.11-.12-.22-.25-.32-.38a2.1,2.1,0,0,1-.49-1.7,2.34,2.34,0,0,0,0-.59c0-.06-.12-.13-.2-.15s-.12.1-.14.17a1.15,1.15,0,0,1-.81.8,2.45,2.45,0,0,1-.67,0l.51-.61c.54-.62,1.08-1.23,1.63-1.84A1.14,1.14,0,0,1,44,46a1.07,1.07,0,0,1,1-.18c.31.12.61.25.91.35a4.28,4.28,0,0,0,1.71-.06c.06,0,.18-.24.16-.33a2.73,2.73,0,0,0-.32-.72c-.19-.3-.35-.64-.76-.74a.38.38,0,0,1-.21-.31c0-.34-.14-.35-.38-.37a1.1,1.1,0,0,1-.9-.44A1.15,1.15,0,0,1,46.27,43c.33.16.48,0,.69-.13s.29-.24.45-.34a.77.77,0,0,1,.42-.17.89.89,0,0,0,.66-.22c.16-.13.35-.23.52-.35s.34-.18.49,0a.44.44,0,0,1,.15.56c-.14.29-.22.6-.35.9s-.29.53-.41.8a.3.3,0,0,0,0,.28,3.7,3.7,0,0,1,.64,2.84c-.11.65-.33,1.29-.5,1.93a1.51,1.51,0,0,1-.13.29,5,5,0,0,0-.82,3c0,.93.18,1.85.23,2.78,0,.36.17.41.46.4a10,10,0,0,1,1.73,0c1.23.19,2.47.15,3.7.22a.24.24,0,0,0,.29-.19,5.58,5.58,0,0,0,.27-2.29c0-.46,0-.92,0-1.38a10.46,10.46,0,0,0,0-1.12c0-.38-.17-.75-.23-1.13A.79.79,0,0,0,54,49a3.07,3.07,0,0,1-1.79-2.07,1.36,1.36,0,0,1,0-.8,13.35,13.35,0,0,1,.72-1.59c.18-.36.43-.68.26-1.14.35.07.63.4,1,.19L52.94,43c-.31-.16-.61-.36-.92-.53a.64.64,0,0,1-.21-.84c.11-.26.33-.18.54-.17a4.86,4.86,0,0,0,1.08,0,1.06,1.06,0,0,1,.7.07,3,3,0,0,0,.51.16.36.36,0,0,0-.14-.52,3.27,3.27,0,0,1-.36-.25,1.21,1.21,0,0,1-.51-.77c.19.21.38.43.59.62s.22.06.34.08,0-.23,0-.35,0-.4,0-.6a6.94,6.94,0,0,0,0-.79,6.53,6.53,0,0,0-.14-.77c.06,0,0,.1.06.15l.19.39a1.47,1.47,0,0,0,.37-.27,1.64,1.64,0,0,0,.36-1.38,1,1,0,0,1,.43-.91c0,.12-.15.21-.17.33a2.92,2.92,0,0,0-.09.78c0,.22.18.3.38.13s.33-.29.49-.44a2.43,2.43,0,0,1,1.21-.62,5.84,5.84,0,0,0-1,.69,13.11,13.11,0,0,0-1.3,1.48,2.77,2.77,0,0,0-.26,3c.41-.06.44-.12.35-.48s-.1-.56-.17-.92c.17.38.28.69.44,1a.56.56,0,0,0,.35.27,11.67,11.67,0,0,0,1.32.07c.27,0,.36-.2.21-.43,0-.06-.1-.11-.14-.17a1.7,1.7,0,0,1-.09-2c0,.17,0,.3-.08.43a1.54,1.54,0,0,0,.14,1.13c.45.93.9,1,1.64.29.38-.38.39-.46.17-.93a3,3,0,0,1-.22-.56c-.06-.3-.07-.6-.11-.91.16.43.3.84.48,1.24.11.22.29.22.4,0a2.2,2.2,0,0,0,.07-2.54,1.63,1.63,0,0,1-.09-.19l0,0,.35.26.11-.05c0-.33-.09-.67-.14-1.06a2.93,2.93,0,0,1,.3,1.86c-.08.61-.28,1.2-.4,1.8a2.88,2.88,0,0,1-1.08,1.49l.08.1.76-.16a.81.81,0,0,1-.23.15,9.77,9.77,0,0,1-1.57.4c-.75.09-1.5.07-2.25.11a2.3,2.3,0,0,0-.35.1v.14l1.27.18a.9.9,0,0,1-1,.42c-.18-.06-.25,0-.29.15-.12.47-.24.93-.37,1.39a.81.81,0,0,0,.81,1.09,8.7,8.7,0,0,1,1.66.27,8.45,8.45,0,0,0,3.12.35,2.91,2.91,0,0,1,1.06,0,10.42,10.42,0,0,1,1.6.63,2.78,2.78,0,0,1,1.2,1.08,3.09,3.09,0,0,1,.14.32,2,2,0,0,1-.42.06,1.46,1.46,0,0,1-.38-.14l-.2-.08a6.21,6.21,0,0,1-.5,1.28A15.49,15.49,0,0,1,62,50.26a1.62,1.62,0,0,0-.33.55c-.18.58.16,1,.46,1.44s.27.41,0,.76a2.92,2.92,0,0,1-.21.28,7.92,7.92,0,0,0-1.57,3.37l1.26.17h0l-.88-.06v.1l3.77.87c-.12-1.11-.21-2.14-.34-3.16a3.3,3.3,0,0,0-.69-1.83c-.43-.47-.86-.94-1.31-1.4s-.34-.54,0-.88a6.34,6.34,0,0,1,.75-.8,2.38,2.38,0,0,0,.88-1.41s0-.05,0-.08a.73.73,0,0,1,0,.33c-.1.56-.23,1.12-.3,1.69a1.44,1.44,0,0,0,.47,1.43,1.7,1.7,0,0,1,.63,1.47c0,.61,0,1.23,0,1.84.09.78.26,1.55.37,2.33.07.41.15.78.68.79,0,0,0,0,.1.08l-.43,0a.59.59,0,0,0,.3.16c.56.21,1.13.39,1.68.62.22.09.34.07.45-.14.61-1.09,1.27-2.15,1.81-3.27a28.85,28.85,0,0,0,3-12.83,36.22,36.22,0,0,0-.29-4.29,27.61,27.61,0,0,0-2.23-8c-.19-.42-.39-.84-.61-1.31a5.68,5.68,0,0,1-5.09.86,5.86,5.86,0,0,1,4.56-1.89l-1-1.63a10.91,10.91,0,0,1-1.17.86,11.15,11.15,0,0,1-1.28.54l-.06-.1a4.09,4.09,0,0,1,1.85-2.31l-.78-1.06A3.38,3.38,0,0,1,65,25.67c0-.08,0-.13,0-.18a2.62,2.62,0,0,1,.67-1.59.35.35,0,0,0,0-.55c-.8-.85-1.58-1.71-2.39-2.55-.33-.35-.7-.65-1.09-1a3.9,3.9,0,0,1-3.28,1.49A3.17,3.17,0,0,1,60,20c.46-.29,1-.52,1.47-.8-.25-.2-.52-.4-.77-.62a.3.3,0,0,0-.46,0,3,3,0,0,1-1.63.62,3.17,3.17,0,0,1,1-1.38l-1.42-.92a3.92,3.92,0,0,1-2.14,3,4.22,4.22,0,0,1,1.59-3.31l-.31-.2c-.5-.27-1-.53-1.5-.81-.22-.12-.34-.1-.48.12A3.65,3.65,0,0,1,53.92,17c-.26.13-.54.21-.87.34A3.6,3.6,0,0,1,54.52,15l-.31-.17-1.76-.68c-.56-.2-.56-.19-.77.36a7,7,0,0,1-1.35,2.17,5.25,5.25,0,0,1-.27-3c0-.23,0-.3-.23-.35-.51-.1-1-.24-1.53-.33-.86-.16-1.73-.28-2.6-.41-.16,0-.35-.06-.44.19a1.94,1.94,0,0,1,1.08.51l-1-.41-.13.18.42.18-.1.1a2.61,2.61,0,0,0-.27-.19c-.09,0-.23-.12-.31-.09a2.65,2.65,0,0,0-.76.36,5.79,5.79,0,0,0-1.85,2.25c-.14.31-.33.6-.5.9-.15-.4-.25-.79-.42-1.14A5.4,5.4,0,0,0,40.67,14c-.1-.12-.09-.34-.15-.51a3.76,3.76,0,0,0-.27-.73.47.47,0,0,0-.37-.19c-.5,0-1,.12-1.49.16-.19,0-.24.1-.26.28A6.53,6.53,0,0,1,38,14a6.83,6.83,0,0,1-1.37,2.71,5.76,5.76,0,0,1-.33-3.59l-.27,0-2.16.55c-.25.06-.32.15-.21.41a4.25,4.25,0,0,1,.23,2,1.48,1.48,0,0,1-.28-.19,10,10,0,0,1-1-1.11c-.37-.54-.34-.57-1-.32l-1.45.6a5.33,5.33,0,0,1,1.22,3.33l-.16,0-.17-.07a5.07,5.07,0,0,1-2.34-2.17c-.05-.09-.2-.23-.25-.21-.32.15-.63.33-1,.53A3.6,3.6,0,0,1,28.82,18a4.77,4.77,0,0,1,.29,2,4.15,4.15,0,0,1-1.94-3.32c-.4.25-.75.46-1.09.69a.34.34,0,0,0,0,.27,6.12,6.12,0,0,1,.32,2.81,4.5,4.5,0,0,1-.67,1.94,5.17,5.17,0,0,1-1.07-3.93.71.71,0,0,0-.16,0l-1.61,1.31c-.05.05,0,.22,0,.32a10.37,10.37,0,0,1,.45,1,2.38,2.38,0,0,1-.09,1.7,2.8,2.8,0,0,1-.77-2.64,2.55,2.55,0,0,0-.35.27c-.66.66-1.31,1.34-2,2-.25.25-.41.46-.2.83a.62.62,0,0,1-.06.54c-.13.18-.37.13-.54,0s-.33-.06-.45.12l-1.56,2.33a1.78,1.78,0,0,0-.12.27,2.2,2.2,0,0,1,1.62,1.7,1.67,1.67,0,0,1-1-.59,10.87,10.87,0,0,1-.67-1c-.16.26-.33.51-.47.77-.32.56-.62,1.12-.92,1.68ZM57,50.15a1,1,0,0,1,0,.3c-.07.57-.17,1.14-.24,1.71a14.15,14.15,0,0,0,0,3.79c0,.16.07.23.24.25.74.11,1.47.21,2.2.34a.43.43,0,0,0,.5-.21A9.19,9.19,0,0,0,61,53.64a1.69,1.69,0,0,0-.31-1.54,10.41,10.41,0,0,1-.78-1.28.65.65,0,0,0-.67-.41,6.15,6.15,0,0,1-1,0C57.85,50.36,57.44,50.24,57,50.15Zm-9.77.67v-.1a.82.82,0,0,0-.3,0,1.12,1.12,0,0,1-.88-.09c-.18-.11-.25,0-.31.17s-.2.48-.29.72a1.73,1.73,0,0,0-.2.62c0,1,.1,2,.15,3,0,.24.13.32.37.3s.4,0,.6,0,.24-.06.25-.24a10.11,10.11,0,0,0,0-1.23c-.06-.86-.17-1.72-.28-2.58,0-.37,0-.44.37-.47A3.85,3.85,0,0,0,47.24,50.82Zm9.57-.67a.59.59,0,0,0-.94.1,1.61,1.61,0,0,0-.21.55c-.09.56-.09,1.14-.22,1.68a11.81,11.81,0,0,0-.35,2.64c0,.9,0,.89.89,1,.2,0,.27,0,.28-.23,0-.48.05-1,.07-1.44a6.28,6.28,0,0,0,0-1c0-.35-.19-.7-.24-1.06C56,51.8,56,51.23,56,50.66a.46.46,0,0,1,.48-.51ZM45,12.61c-.05,0-.07,0-.1,0-.8,0-1.61-.08-2.41-.1a.37.37,0,0,0-.3.19c-.19.62-.38,1.25-.52,1.9a1.25,1.25,0,0,0,.1.68c.08.21.25.27.44.07s.68-.66,1-1a6.31,6.31,0,0,1,1.68-1.54A.83.83,0,0,0,45,12.61Zm2.47,38.77H47.3c0,.23-.08.46-.11.69-.08.91-.17,1.81-.22,2.72,0,.67,0,.66.66.65.18,0,.27-.06.26-.26,0-.54,0-1.09,0-1.63C47.78,52.81,47.6,52.1,47.46,51.38ZM40.54,12.49l0,.1c.33.5.18,1.21.78,1.62a12.39,12.39,0,0,0,.36-1.55.2.2,0,0,0-.13-.16C41.19,12.48,40.86,12.49,40.54,12.49Z" style="fill:#bcbcbc"/><path d="M22.34,16.48l0,0c.58-.41.58-.41.4-1.09L21.23,9.82a2.28,2.28,0,0,0-.11-.29l-.58.32,0,0a1.49,1.49,0,0,1,.14-.12c.73-.44,1.47-.89,2.21-1.32A1.35,1.35,0,0,1,25,9.25,2.15,2.15,0,0,1,24.42,11c-.12.14-.24.26-.42.45.19,0,.31,0,.43,0a1.08,1.08,0,0,1,1.12.66c.14.3.25.62.36.93a3.05,3.05,0,0,0,.2.53c.08.14.25.34.35.32s.28-.2.39-.34a1.37,1.37,0,0,0,.12-.4.93.93,0,0,1-.61,1,.79.79,0,0,1-1-.36,8.27,8.27,0,0,1-.46-1c-.11-.28-.19-.57-.32-.84a.56.56,0,0,0-.81-.31,7.07,7.07,0,0,0-.84.49.3.3,0,0,0-.09.26c.27,1,.56,2,.85,3.05a.35.35,0,0,0,.08.12l.65-.36,0,.06-2.08,1.25Zm.42-4.35A4,4,0,0,0,24,11.24a2.41,2.41,0,0,0-.33-2.65.77.77,0,0,0-.58-.14A6.44,6.44,0,0,0,22.05,9a.31.31,0,0,0-.09.26C22.21,10.17,22.48,11.12,22.76,12.13Z" style="fill:#bcbcbc"/><path d="M12.72,22c.28.1.14.23.06.36-.62,1-1.29,2.05-1.86,3.11A34.9,34.9,0,0,0,7.27,35.78a29.23,29.23,0,0,0-.56,5c0,1.35-.07,2.71,0,4.05A35.34,35.34,0,0,0,9.39,56.3s0,.08,0,.11a1.66,1.66,0,0,1-.06.21.91.91,0,0,1-.17-.09.45.45,0,0,1-.06-.14,33.93,33.93,0,0,1-2.32-8.33c-.18-1.31-.32-2.64-.38-4a36.66,36.66,0,0,1,0-4.06,36.14,36.14,0,0,1,6.09-17.87l.11-.15S12.69,22,12.72,22Z" style="fill:#bcbcbc"/><path d="M77.72,53.05c-.35,0-.26-.21-.22-.34.25-1.05.56-2.09.75-3.14a39.62,39.62,0,0,0,.56-4,44.06,44.06,0,0,0,.11-4.74,34.67,34.67,0,0,0-1.58-9.09,36.15,36.15,0,0,0-4-8.64c-.09-.15-.23-.29.13-.36A36.78,36.78,0,0,1,77.72,53.05Z" style="fill:#bcbcbc"/><path d="M55.56,10.63c-.32.54-.62,1.07-.94,1.6a.28.28,0,0,1-.24.06l-4.66-1.62,0-.05.15,0c.57.19.57.19.91-.3L54,5.57c.07-.1.13-.21.21-.35L53.62,5l0-.06L58,6.42c-.3.54-.59,1-.87,1.55l-.05,0a6.85,6.85,0,0,0,.16-.76,1,1,0,0,0-.6-1.12c-.46-.2-.94-.35-1.42-.51a.25.25,0,0,0-.23.08q-.8,1.11-1.56,2.25a1.18,1.18,0,0,0,0,.18,7.85,7.85,0,0,0,1.12.26c.44,0,.63-.38.92-.62l-1.38,2-.06,0c.11-.18.22-.36.32-.54a.54.54,0,0,0-.24-.8,4.16,4.16,0,0,0-.65-.24.29.29,0,0,0-.23.09c-.64.93-1.27,1.87-1.9,2.81,0,0,0,0,0,.12a6.53,6.53,0,0,0,2.54.61,2.23,2.23,0,0,0,1.48-.92l.17-.22S55.52,10.63,55.56,10.63Z" style="fill:#bcbcbc"/><path d="M34.56,8.45c-.7,0-.68.4-.66.91a2.45,2.45,0,0,1-2,2.51A2.61,2.61,0,0,1,29,10.54a4,4,0,0,1-.09-3.49,4.11,4.11,0,0,1,1.18-1.69,2.54,2.54,0,0,1,2.77-.54l.2.07c.31.08.43,0,.66-.25V6.79c-.05-.18-.11-.45-.2-.72a1.88,1.88,0,0,0-1.18-1.33A1.93,1.93,0,0,0,30.08,5.8a6.65,6.65,0,0,0-.41,1.53,8.46,8.46,0,0,0,0,3,3,3,0,0,0,.17.5,1.69,1.69,0,0,0,2.71.58,1.2,1.2,0,0,0,.44-.93q0-.6,0-1.2c0-.35,0-.36-.37-.26a.56.56,0,0,1-.29,0l1.06-.35,1-.32Z" style="fill:#bcbcbc"/><path d="M53.49,73.3a2,2,0,0,1,2.44.74,3.83,3.83,0,0,1,.27,3.89,3,3,0,0,1-1.41,1.59,2.14,2.14,0,0,1-2.8-.74,4.08,4.08,0,0,1,.71-5.06,5.09,5.09,0,0,1,.8-.43,1.87,1.87,0,0,0-1.14,1.48,8.31,8.31,0,0,0,.06,2.9A5.28,5.28,0,0,0,52.84,79a1.16,1.16,0,0,0,1.17.69,1.65,1.65,0,0,0,1.56-1.29,8.21,8.21,0,0,0-.16-3.94A1.42,1.42,0,0,0,53.49,73.3Z" style="fill:#bcbcbc"/><path d="M44.49,77.39l-.88.65,1,1.77.31-.35a2,2,0,0,1,.94-.75.54.54,0,0,1,.75.51.42.42,0,0,1-.84,0,1.92,1.92,0,0,0-.09-.32,1.11,1.11,0,0,0-.33.15,4.77,4.77,0,0,0-.55.64.32.32,0,0,0,0,.3,3.83,3.83,0,0,0,.48.66c.52.55.89.51,1.3-.12a1.21,1.21,0,0,1-.73.9,1,1,0,0,1-1-.29c-.19-.19-.36-.4-.56-.62a4.06,4.06,0,0,1-.58.59,2.76,2.76,0,0,1-.94.5,1.11,1.11,0,0,1-1.23-.57,1.45,1.45,0,0,1-.1-1.5,2.59,2.59,0,0,1,1.3-1.14c.26-.12.31-.24.21-.52a1.58,1.58,0,0,1,.4-1.89,1.1,1.1,0,0,1,1.07-.2c.43.12.58.57.43,1.16a2.4,2.4,0,0,0,0-.28.75.75,0,0,0-.66-.87.78.78,0,0,0-.84.68A2.23,2.23,0,0,0,43.61,78Zm-1.4,3.86a1.38,1.38,0,0,0,.92-.56.35.35,0,0,0,0-.47c-.26-.4-.49-.83-.71-1.25-.37-.72-.43-.73-1.06-.21l-.09.08a1.06,1.06,0,0,0-.27,1.26c.22.54.5,1,1.14,1.14Z" style="fill:#bcbcbc"/><path d="M62.46,8.89l-.65-.44,0,0,2.06,1.29,0,.07a2.88,2.88,0,0,0-.5-.3.42.42,0,0,0-.35,0c-1.59,1.43-3.17,2.88-4.75,4.32a.61.61,0,0,0-.11.16,6,6,0,0,0,2.49,1.21,3.11,3.11,0,0,0,2.05-.68,1.52,1.52,0,0,1,.33-.2.31.31,0,0,1-.07.09c-.55.48-1.09,1-1.65,1.42a.3.3,0,0,1-.29,0l-4.28-2.69s0,0,0-.09l.27.14c.44.27.32.33.77-.08l4.4-4A2.21,2.21,0,0,1,62.46,8.89Z" style="fill:#bcbcbc"/><path d="M63.1,17.12c.6.49.6.49,1.25.12l4.86-2.72c.12-.06.23-.14.38-.23l-.47-.52h0l1.71,1.72a1.8,1.8,0,0,1-.2-.18c-.48-.46-.31-.42-.88-.11l-5,2.81-.42.26a6.43,6.43,0,0,0,2,1.72,3.09,3.09,0,0,0,2.35-.17l.28-.13s0,0,.09,0a2.43,2.43,0,0,1-.22.14c-.61.32-1.22.65-1.84,1a.35.35,0,0,1-.34,0c-1.17-1.16-2.34-2.34-3.51-3.52C63.14,17.22,63.14,17.19,63.1,17.12Z" style="fill:#bcbcbc"/><path d="M19.68,19l.38-.36c.13-.1.12-.2,0-.31l-1.3-1.41c-.12-.14-.21-.12-.33,0-.34.33-.7.63-1,1a.46.46,0,0,0-.12.37c.08.59.2,1.17.31,1.76s.21.58.67.27a.13.13,0,0,1,.14,0l-1.06,1c.47-.61.14-1.24,0-1.84-.37-2.05-.78-4.08-1.16-6.13a.53.53,0,0,1,0-.34l4.58,4.94.43-.35,0,.05L19.74,19Zm-1.12-2.3-1.88-2-.1.05c.21,1.05.41,2.1.63,3.24Z" style="fill:#bcbcbc"/><path d="M40.11,3.25c0,.35.08.7.11,1l.3,3.47c0,.52.1,1,.14,1.57s0,.59.59.68l-2.1.17v-.06a3.56,3.56,0,0,0,.47,0c.08,0,.21-.13.21-.19,0-.72-.11-1.44-.17-2.19a8.72,8.72,0,0,1-1.2.09,1,1,0,0,0-1.06.76c-.16.4-.39.77-.58,1.15s-.13.56.35.58a.18.18,0,0,1,.15.07l-1.38.13c.58-.21.75-.75,1-1.22,1-1.9,1.95-3.81,2.92-5.71L40,3.25ZM37.8,7.78l1.7-.17s.13-.16.12-.24q0-.74-.12-1.47c0-.34-.07-.69-.11-1l-.1,0C38.81,5.79,38.32,6.74,37.8,7.78Z" style="fill:#bcbcbc"/><path d="M9.7,63.47l-.8-1.15c.36.46.78.34,1.23.18l4.63-1.63.34-.14-.36-.58,0,0c.27.4.55.79.81,1.19,0,.06,0,.21-.1.3l-2.57,3.66-.35.54.48-.13,3.73-1.31c.52-.18.57-.3.38-.84l.39.54c.13.18.25.37.38.58a.87.87,0,0,0-1.11-.21c-1.6.58-3.21,1.14-4.83,1.7a1.67,1.67,0,0,1-.5,0l0-.1,1.74-2.53c.57-.84,1.15-1.67,1.73-2.5l-.06-.07-.82.27-3.91,1.38C9.58,62.79,9.53,62.89,9.7,63.47Z" style="fill:#bcbcbc"/><path d="M49.24,3.84,50.31,4a10.18,10.18,0,0,0-.8.72L44.9,9.78c-.1.12-.21.23-.38.41a2.32,2.32,0,0,1,.06-.32Q45.39,7,46.21,4.1c.13-.48.13-.48-.34-.58a.16.16,0,0,1-.11-.09L48,3.7c-.77,0-.77,0-1,.76-.35,1.24-.69,2.48-1,3.72l-.06.28.08,0,.37-.41,3-3.37.09-.09C49.84,4.18,49.79,4,49.24,3.84Z" style="fill:#bcbcbc"/><path d="M24.06,76.17c-.3.06-.6.15-.9.19A.64.64,0,0,1,22.5,76a.58.58,0,0,1,.12-.67s.08-.12.17-.26a2.91,2.91,0,0,1-.41.1,5.07,5.07,0,0,1-1.29,0c-.61-.15-.72-.7-.27-1.13s1.15-1,1.73-1.55l.4-.37-.35-.27,0,0,1,.53-1.89,1.68a4.18,4.18,0,0,0-.53.5c-.08.1-.17.31-.12.4a.58.58,0,0,0,.4.24,2.78,2.78,0,0,0,2-.67l1.1-1c.41-.33.41-.33.86,0l-.79.7-1.47,1.28a1.16,1.16,0,0,0-.26.28c-.12.21,0,.4.21.38s.59-.11.88-.16Z" style="fill:#bcbcbc"/><path d="M72.93,65c0,.32.1.64.1,1a.65.65,0,0,1-.43.61.55.55,0,0,1-.64-.22c-.41-.54-.79-1.1-1.18-1.66-.11-.15-.2-.3-.31-.44-.29-.35-.59-.3-.75.13a2.25,2.25,0,0,0,0,1.45,5.77,5.77,0,0,0,.51,1.1A8.11,8.11,0,0,0,70.94,68a.43.43,0,0,1,0,.69,1.16,1.16,0,0,0-.13.15l-2.12-3-.33.37,0,0c.22-.31.43-.63.68-1l.57.79.06,0a4.54,4.54,0,0,1,0-.63,3.44,3.44,0,0,1,.19-1.16c.29-.68.91-.71,1.34-.1s.78,1.14,1.17,1.71a1,1,0,0,0,.22.27.45.45,0,0,0,.33.08c.08,0,.15-.18.14-.28,0-.27-.06-.55-.09-.83Z" style="fill:#bcbcbc"/><path d="M66.93,68.33a1.63,1.63,0,0,1-.17-.58c0-.15.21-.27.37-.45l.74,1.42c.23.44.46.87.68,1.31a1,1,0,0,0,.17.27c.09.07.24.18.3.15a.43.43,0,0,0,.21-.31,6.54,6.54,0,0,0,0-.77,1.35,1.35,0,0,1-.18,1.29c-.25.29-.55.18-.88,0,0,.12,0,.23-.06.34a1.21,1.21,0,0,1-1.92.94,2.39,2.39,0,0,1-.79-3.06C65.76,68.3,66.14,68.15,66.93,68.33Zm1.15,2.51A5.25,5.25,0,0,0,67,68.51a.68.68,0,0,0-.84-.16.83.83,0,0,0-.51.8,3.38,3.38,0,0,0,1.09,2.54c.51.52,1.11.34,1.31-.36A3.55,3.55,0,0,0,68.08,70.84Z" style="fill:#bcbcbc"/><path d="M33.05,79.66a1.35,1.35,0,0,1-1.23.53c-.37-.07-.47-.37-.44-.77l-.37.15a1.21,1.21,0,0,1-1.76-1.27,2.41,2.41,0,0,1,2.16-2.14c.78,0,1.14.23,1.37,1,.15-.17.27-.37.43-.44s.33.07.53.13l-.8,1.25c-.31.48-.63,1-.92,1.46A1,1,0,0,0,32,80a1.18,1.18,0,0,0,.46,0A4.22,4.22,0,0,0,33.05,79.66Zm-.36-2.56a.78.78,0,0,0-1-.76,2.15,2.15,0,0,0-.79.42,3.7,3.7,0,0,0-1.18,1.93.68.68,0,0,0,.75.93,1.35,1.35,0,0,0,1.1-.58,16.5,16.5,0,0,0,.93-1.42A2.28,2.28,0,0,0,32.69,77.1Z" style="fill:#bcbcbc"/><path d="M16.77,70.87c-.44.07-.9.2-1.3-.14s-.21-.56-.06-.88l-.6-.1A1.16,1.16,0,0,1,14,68.09a2.11,2.11,0,0,1,1.79-1.25,3.05,3.05,0,0,1,1,.07,1.22,1.22,0,0,1,1,1.64c.39-.24.74-.33.95.21l-1.22.67c-.45.26-.92.5-1.37.76a1.36,1.36,0,0,0-.32.21.46.46,0,0,0-.11.29c0,.07.15.16.23.17C16.2,70.88,16.49,70.87,16.77,70.87Zm-.24-3.65a3.66,3.66,0,0,0-2.22,1.25.7.7,0,0,0,.37,1.19,1.53,1.53,0,0,0,1.19-.08c.49-.23,1-.5,1.44-.77a.88.88,0,0,0,.47-.71C17.82,67.58,17.41,67.22,16.53,67.22Z" style="fill:#bcbcbc"/><path d="M37.17,75.13,36.74,75H38c-.11.22-.21.42-.31.6L35.27,80c-.11.21-.32.45-.08.66s.47,0,.69-.12.32-.22.49-.34a1.46,1.46,0,0,1-1.39.64c-.42-.09-.57-.46-.35-.91.3-.61.63-1.21.95-1.81L37,75.44A3.11,3.11,0,0,0,37.17,75.13Z" style="fill:#bcbcbc"/><path d="M21,70.58l.65.55,0,0c-.16-.13-.34-.25-.5-.39a.27.27,0,0,0-.39,0c-.77.54-1.55,1.07-2.32,1.62-.12.08-.16.27-.23.4.14.08.29.22.43.22a9.46,9.46,0,0,0,1.09-.08,2.27,2.27,0,0,1-1.55.11c-.54-.28-.61-.77-.11-1.14s1.31-.91,2-1.37l.4-.28-.35-.33,0,0c.45.29.48.33.89,0a.73.73,0,0,1,1.07,0Z" style="fill:#bcbcbc"/><path d="M62.38,74.48a.39.39,0,0,0,0,.56c.16.17.35,0,.51-.06l1.22-.88c.68-.48,1.22-.31,1.52.48a2.21,2.21,0,0,1-1.07,2.57,2,2,0,0,1-.73.27,1,1,0,0,1-1-1.32c0-.15.13-.29.21-.47-.37,0-.71-.07-.78-.48,0-.23-.1-.51.18-.67ZM64,77.17a1.1,1.1,0,0,0,.25,0,2,2,0,0,0,1.32-1.94c-.06-.85-.51-1.07-1.21-.59l-1.05.74A1,1,0,0,0,63,76.48,1,1,0,0,0,64,77.17Z" style="fill:#bcbcbc"/><path d="M76.19,58.11a2.1,2.1,0,0,1,.62,1.62,1.2,1.2,0,0,1-1.48,1,2.5,2.5,0,0,1-1.8-2.84A1,1,0,0,1,74.2,57a.42.42,0,0,1,.53.27c0,.22,0,.44-.25.49a.76.76,0,0,1-.42-.13.9.9,0,0,1-.21-.25.67.67,0,0,0-.21.76,1.5,1.5,0,0,0,.36.61c.51.47,1,.92,1.6,1.35a.64.64,0,0,0,.82.07.79.79,0,0,0,.28-.88C76.57,58.91,76.36,58.52,76.19,58.11Z" style="fill:#bcbcbc"/><path d="M28.61,75.18a2.79,2.79,0,0,0-.74.24,13.76,13.76,0,0,0-1.24,1c-.27.26-.49.57-.74.85s-.38.41-.91.09c.81-.91,1.6-1.82,2.42-2.75l-.4-.23v0l1.08.41c-.17.2-.34.38-.55.64a6.31,6.31,0,0,1,.95-.3,1,1,0,0,1,.57.06.33.33,0,0,1,.22.5c-.11.21-.27.34-.51.24s-.28-.32-.15-.55a.36.36,0,0,0,0-.11Z" style="fill:#bcbcbc"/><path d="M58.64,73.69c.06.27.12.52.17.76h.07a2.93,2.93,0,0,1,.18-.66,1.92,1.92,0,0,1,.46-.6.34.34,0,0,1,.56.1.4.4,0,0,1-.14.57c-.26.13-.41,0-.5-.24,0,0,0-.07-.09-.12a1.35,1.35,0,0,0-.4,1.14c0,.62.16,1.22.25,1.83a4.36,4.36,0,0,0,.11.52c.09.54.09.54-.48.75-.24-1.19-.47-2.37-.72-3.59l-.4.16v0Z" style="fill:#bcbcbc"/><path d="M62.38,74.48c0-.1,0-.19.08-.32-.43-.11-.88-.23-1-.7a2.35,2.35,0,0,1,0-1c.2-.86.72-1.16,1.75-1.09,0-.11,0-.22,0-.33a.57.57,0,0,1,.39-.56.49.49,0,0,1,.4.17A.37.37,0,0,1,64,71a.45.45,0,0,1-.41,0c-.23-.2-.3-.06-.3.11a.81.81,0,0,0,.16.48A1.49,1.49,0,0,1,62.9,74a2.75,2.75,0,0,0-.52.45Zm-.68-2.27c.16.46.31.93.48,1.39a.55.55,0,0,0,.64.39c.38-.1.68-.42.59-.74a10.29,10.29,0,0,0-.51-1.54.48.48,0,0,0-.74-.21A.86.86,0,0,0,61.7,72.21Z" style="fill:#bcbcbc"/><path d="M74.78,62.06c0,.38.09.76.09,1.15a.61.61,0,0,1-.43.6.66.66,0,0,1-.7-.25c-.45-.49-.88-1-1.32-1.47l-.62-.68-.28.41,0,0,.55-1c.32.35.63.68.93,1L74.08,63a.75.75,0,0,0,.16.15c.13.06.33.17.41.11a.56.56,0,0,0,.19-.42,5.4,5.4,0,0,0-.16-.78Z" style="fill:#bcbcbc"/><path d="M55.93,4.55c.63-.09,1.22-.19,1.81-.26a1.35,1.35,0,0,1,.53,0c.06,0,.11.17.11.26s-.12.13-.18.13L56,4.62S56,4.6,55.93,4.55Z" style="fill:#bcbcbc"/><path d="M70.6,59.73c-.35,0-.64-.28-.58-.52a.47.47,0,0,1,.31-.29c.22-.05.54.28.49.5A1.12,1.12,0,0,1,70.6,59.73Z" style="fill:#bcbcbc"/><path d="M35.88,27.86c-.41-.66-.79-1.3-1.2-1.92a1.4,1.4,0,0,0-1-.62l.39-.1a2,2,0,0,1-.36-1.42,5.19,5.19,0,0,0,1.58,2.65h.09a3.25,3.25,0,0,1,0-.54c.17-1.25-.64-2-1.47-2.64a11.59,11.59,0,0,0-1.12-.69.49.49,0,0,0-.74.1s-.09,0-.19,0l.25-.32L32,22.29l-.87.45,0,0c.15-.1.3-.22.46-.31s.36-.14.57-.22a.67.67,0,0,0-.67-.22c-.23,0-.45.07-.67.08a1.53,1.53,0,0,1,1.22-.11,4.42,4.42,0,0,1,2,1.23c.44.43.89.86,1.35,1.27.25.22.43.18.5-.14a2,2,0,0,0,0-.85c-.08-.32-.25-.62-.35-.94s-.22-.79-.3-1.18a2.79,2.79,0,0,0-.87-1.5c-.07-.07-.14-.13-.2-.2s0,0,0-.11c.7.32,1,1,1.42,1.57a2,2,0,0,1,.72-1.22c.08-.06.07-.24.11-.4l.25.14.25-.15.1,0a2.71,2.71,0,0,0-.65,3.87,1.8,1.8,0,0,0,.25-.39c.08-.27.13-.55.19-.82a2.7,2.7,0,0,1,1.68-1.83,1,1,0,0,1,.25,0c-.09.12-.12.21-.19.26a2.28,2.28,0,0,1-.44.3,2,2,0,0,0-1.14,1.82.62.62,0,0,1-.06.31,6.59,6.59,0,0,0-.67,1.54,3.31,3.31,0,0,0-.27,1.06c0,.68,0,1.36,0,2l.1,0,.52-.31,0,.07Z" style="fill:#bcbcbc"/><path d="M51.88,33.19a3.4,3.4,0,0,1,2,.17v.09l-.55-.07a2.41,2.41,0,0,0-1.35.18c-.67.25-1.35.48-2,.74a2.55,2.55,0,0,0-.82.42c-.32.28-.24.53.17.61.72.14,1.46.25,2.19.39a4.09,4.09,0,0,1,1.74.74,1.48,1.48,0,0,1,.62,1.06c-.21-.4-.33-.88-.89-1,0,.41.31.77.12,1.22l-.16-1H52.8l-.12.4a1.56,1.56,0,0,1-.07-.14c.11-.58-.32-.79-.72-.94a5.7,5.7,0,0,0-3.16-.37.48.48,0,0,0-.21.07c-.31.26-.61.53-1,.85a5.38,5.38,0,0,0,3.11-.3c-.16.28-.33.34-1.3.55l.13.39c-.62-.72-1.41-.48-2.16-.42-.38,0-.76.1-1.18.15,0-.28,0-.55-.07-.82h.08l.07.61a6.91,6.91,0,0,0,2.21-1.7c.25-.32.48-.65.72-1a.59.59,0,0,0,.06-.2,1.83,1.83,0,0,1,.58-.95,2.12,2.12,0,0,0,.66-2.14,1,1,0,0,1,.09-.52,1.65,1.65,0,0,1,.23,1.18A2.53,2.53,0,0,1,50,33.13a.93.93,0,0,0-.41.81,3.67,3.67,0,0,0,1.95-.84,3.56,3.56,0,0,0,.75-1.87l.26.31a7.49,7.49,0,0,1-.23.77C52.18,32.6,52,32.87,51.88,33.19Z" style="fill:#bcbcbc"/><path d="M19.47,41.93A5.49,5.49,0,0,1,25,39.72,5.29,5.29,0,0,1,19.47,41.93Z" style="fill:#bcbcbc"/><path d="M46.57,30.6c.45-1.76,3.27-3.78,4.82-3.47C51.17,28.78,48.46,30.73,46.57,30.6Z" style="fill:#bcbcbc"/><path d="M52.81,40.22a5.29,5.29,0,0,1-5.66-1.89A5.42,5.42,0,0,1,52.81,40.22Z" style="fill:#bcbcbc"/><path d="M45.73,19.5C45.34,21.27,43,23,40.92,23,41,21.53,44,19.28,45.73,19.5Z" style="fill:#bcbcbc"/><path d="M33.68,30.74a5.36,5.36,0,0,1-4.52-3.86C30.82,26.8,33.38,28.82,33.68,30.74Z" style="fill:#bcbcbc"/><path d="M61.87,31.64a5.47,5.47,0,0,1,5.91.89C66.12,33.42,64,33.3,61.87,31.64Z" style="fill:#bcbcbc"/><path d="M20.82,31.18c1.64.19,4,3.27,3.59,4.74A5.41,5.41,0,0,1,20.82,31.18Z" style="fill:#bcbcbc"/><path d="M57.3,27.8a5.35,5.35,0,0,1-5.75,1.62A5.48,5.48,0,0,1,57.3,27.8Z" style="fill:#bcbcbc"/><path d="M48.84,20.64a5.49,5.49,0,0,1-.55-6A5.32,5.32,0,0,1,48.84,20.64Z" style="fill:#bcbcbc"/><path d="M45.57,25.56a6.13,6.13,0,0,1,.76-.1,1,1,0,0,1,.43.15c.06,0,.08.13.12.2s-.16.1-.22.08a1.27,1.27,0,0,0-1.26.36,2.3,2.3,0,0,0-.88,1.51,5.83,5.83,0,0,0,0,1.18.71.71,0,0,1-.25.7,1.76,1.76,0,0,1-.55.18c0-.32.07-.54.08-.75,0-.55-.14-.76-.62-.78a1.14,1.14,0,0,1-.93-1.16c0-.08.11-.15.16-.23a1.53,1.53,0,0,1,.18.18,7.77,7.77,0,0,0,.54.74c.14.14.35.11.37-.13a2,2,0,0,1,1.05-1.48c.6-.44.71-.61.51-1.33-.11-.37-.25-.74-.33-1.11,0-.14,0-.4.08-.43s.4.08.45.29c.11.48.19,1,.27,1.47A3.52,3.52,0,0,1,45.57,25.56Z" style="fill:#bcbcbc"/><path d="M59.9,34.74a4.41,4.41,0,0,1-4.7-1.58A4.5,4.5,0,0,1,59.9,34.74Z" style="fill:#bcbcbc"/><path d="M36.15,55a7.94,7.94,0,0,1-1.3-2.43,16.13,16.13,0,0,0-3.11-5.67,13.14,13.14,0,0,0-1.14-1.09,3.3,3.3,0,0,1,1.64.94,11.33,11.33,0,0,1,2.25,3.43,12.4,12.4,0,0,1,.79,2.24A27,27,0,0,0,36.15,55Z" style="fill:#bcbcbc"/><path d="M57,31.62a3.74,3.74,0,0,1,4.07.25A3.64,3.64,0,0,1,57,31.62Z" style="fill:#bcbcbc"/><path d="M54.94,22a3.6,3.6,0,0,1-3.18,2.51A3.68,3.68,0,0,1,54.94,22Z" style="fill:#bcbcbc"/><path d="M52.14,16.87a3.69,3.69,0,0,1-2.26,3.36A3.55,3.55,0,0,1,52.14,16.87Z" style="fill:#bcbcbc"/><path d="M60.35,33.48a3.74,3.74,0,0,1,3.89,1.17A3.52,3.52,0,0,1,60.35,33.48Z" style="fill:#bcbcbc"/><path d="M19.52,27.37a3.6,3.6,0,0,1,2.8,3A3.75,3.75,0,0,1,19.52,27.37Z" style="fill:#bcbcbc"/><path d="M61.32,25.37a3.59,3.59,0,0,1-3.78,1.42A3.69,3.69,0,0,1,61.32,25.37Z" style="fill:#bcbcbc"/><path d="M25.43,23.81c1.15.07,2.55,1.69,2.64,3.06C27,26.8,25.43,25,25.43,23.81Z" style="fill:#bcbcbc"/><path d="M37.61,26.67a3.69,3.69,0,0,1,.61-4A3.6,3.6,0,0,1,37.61,26.67Z" style="fill:#bcbcbc"/><path d="M35.5,19.35a3.76,3.76,0,0,1-.46-4A3.57,3.57,0,0,1,35.5,19.35Z" style="fill:#bcbcbc"/><path d="M41.56,32.06A3.74,3.74,0,0,1,41.22,28,3.56,3.56,0,0,1,41.56,32.06Z" style="fill:#bcbcbc"/><path d="M16.43,32a3.74,3.74,0,0,1,3.93.91C19.44,33.55,17.17,33,16.43,32Z" style="fill:#bcbcbc"/><path d="M18.76,37.85a3.77,3.77,0,0,1,4,.9A3.54,3.54,0,0,1,18.76,37.85Z" style="fill:#bcbcbc"/><path d="M44.39,16c1.46.25,2.8,2.15,2.66,3C45.88,19,44.66,17.58,44.39,16Z" style="fill:#bcbcbc"/><path d="M14,34.47a3.74,3.74,0,0,1,4.06-.08A3.61,3.61,0,0,1,14,34.47Z" style="fill:#bcbcbc"/><path d="M62.73,26.24a3.86,3.86,0,0,1,1-3.95A3.55,3.55,0,0,1,62.73,26.24Z" style="fill:#bcbcbc"/><path d="M46.57,28.35a3.7,3.7,0,0,1,2.65-3.07C49.32,26.42,48.17,27.78,46.57,28.35Z" style="fill:#bcbcbc"/><path d="M52.41,25.42a3.79,3.79,0,0,1,4.07.22A3.58,3.58,0,0,1,52.41,25.42Z" style="fill:#bcbcbc"/><path d="M15.25,43a3.63,3.63,0,0,1,3.56-1.86A3.55,3.55,0,0,1,15.25,43Z" style="fill:#bcbcbc"/><path d="M45.41,32.48a3.5,3.5,0,0,1-3.14,2.46C42.34,33.86,44.38,32.26,45.41,32.48Z" style="fill:#bcbcbc"/><path d="M56.67,30.16a3.73,3.73,0,0,1,3.77-1.42C60.06,29.76,57.87,30.6,56.67,30.16Z" style="fill:#bcbcbc"/><path d="M55.67,22.29a2.85,2.85,0,0,1,2.45-1.85A2.66,2.66,0,0,1,55.67,22.29Z" style="fill:#bcbcbc"/><path d="M29.15,25.29a2.67,2.67,0,0,1,1.52-2.63A2.74,2.74,0,0,1,29.15,25.29Z" style="fill:#bcbcbc"/><path d="M17.78,29.07a2.93,2.93,0,0,1,2,2.28C19,31.42,17.87,30.17,17.78,29.07Z" style="fill:#bcbcbc"/><path d="M42.44,35.68a2.86,2.86,0,0,1,3,.35A2.59,2.59,0,0,1,42.44,35.68Z" style="fill:#bcbcbc"/><path d="M45.3,22.86a2.78,2.78,0,0,1,2.52-1.7A2.69,2.69,0,0,1,45.3,22.86Z" style="fill:#bcbcbc"/><path d="M30.38,33.08a2.8,2.8,0,0,1-2.29,2A2.67,2.67,0,0,1,30.38,33.08Z" style="fill:#bcbcbc"/><path d="M22.84,45A2.75,2.75,0,0,1,24,42.19C24.38,42.91,23.76,44.41,22.84,45Z" style="fill:#bcbcbc"/><path d="M49.59,21.32a2.7,2.7,0,0,1,.1,3A2.68,2.68,0,0,1,49.59,21.32Z" style="fill:#bcbcbc"/><path d="M34.6,30.65a2.81,2.81,0,0,1,.06-3A2.65,2.65,0,0,1,34.6,30.65Z" style="fill:#bcbcbc"/><path d="M23.37,29.42A2.84,2.84,0,0,1,25,32.08,2.82,2.82,0,0,1,23.37,29.42Z" style="fill:#bcbcbc"/><path d="M31.65,37.91a2.77,2.77,0,0,1,1-2.84A2.62,2.62,0,0,1,31.65,37.91Z" style="fill:#bcbcbc"/><path d="M41.41,25.8a2.78,2.78,0,0,1,3-.7A2.68,2.68,0,0,1,41.41,25.8Z" style="fill:#bcbcbc"/><path d="M38.49,16.35a2.68,2.68,0,0,1-1.82,2.39A2.69,2.69,0,0,1,38.49,16.35Z" style="fill:#bcbcbc"/><path d="M34.22,18.5a2.73,2.73,0,0,1-2.16-2.08C32.9,16.36,34,17.4,34.22,18.5Z" style="fill:#bcbcbc"/><path d="M24.9,27.06a2.71,2.71,0,0,1,2.71,1.28A2.6,2.6,0,0,1,24.9,27.06Z" style="fill:#bcbcbc"/><path d="M45.79,13.85a2.75,2.75,0,0,1,1.13,2.8A2.63,2.63,0,0,1,45.79,13.85Z" style="fill:#bcbcbc"/><path d="M40.24,16.77a2.69,2.69,0,0,1-.09,3A2.79,2.79,0,0,1,40.24,16.77Z" style="fill:#bcbcbc"/><path d="M23.23,24.37A2.92,2.92,0,0,1,23,27.42,2.68,2.68,0,0,1,23.23,24.37Z" style="fill:#bcbcbc"/><path d="M52.24,34.6a2.65,2.65,0,0,1,2.85,1C54.48,36,52.74,35.42,52.24,34.6Z" style="fill:#bcbcbc"/><path d="M26,30.08a1.41,1.41,0,0,0-.67-.95.46.46,0,0,1-.2-.19A3.06,3.06,0,0,0,24,27.82a3.29,3.29,0,0,1-.42-.34l.05-.07a.61.61,0,0,1,.18.05,4.49,4.49,0,0,1,2,1.72c.31.49.66.95,1,1.45l-.13.13-.88-.33a.54.54,0,0,1-.37-.74C25.67,29.78,25.55,30.29,26,30.08Z" style="fill:#bcbcbc"/><path d="M20.15,26.1a1,1,0,0,1-.89-.68.36.36,0,0,1,.23-.51c.36-.14,1.08.37,1.09.77S20.49,26.11,20.15,26.1Z" style="fill:#bcbcbc"/><path d="M21.59,23.73c0,.44-.21.73-.5.72s-.46-.34-.47-.72.21-.79.5-.8S21.59,23.25,21.59,23.73Z" style="fill:#bcbcbc"/><path d="M42.2,24.06a.61.61,0,0,1-.46.58,2.3,2.3,0,0,0-1.61,1.2c-.11.23-.4.38-.33.76l.23-.24c0,.2,0,.31-.23.4a1,1,0,0,0-.63.65.83.83,0,0,1-.27.32,4.23,4.23,0,0,1-.42.32l.07.07c.09-.26.17-.53.27-.79,0-.08.12-.14.17-.21a8.57,8.57,0,0,0,.76-1.06,2.67,2.67,0,0,1,1.82-1.47A.85.85,0,0,0,42.2,24.06Z" style="fill:#bcbcbc"/><path d="M47.73,24.82a2.12,2.12,0,0,1,.1-2.26A1.91,1.91,0,0,1,47.73,24.82Z" style="fill:#bcbcbc"/><path d="M60.66,35.19a2,2,0,0,1,1.55,1.64A2,2,0,0,1,60.66,35.19Z" style="fill:#bcbcbc"/><path d="M51.72,21.22a2,2,0,0,1-.57,2.23A2.21,2.21,0,0,1,51.72,21.22Z" style="fill:#bcbcbc"/><path d="M44.46,31.18A2,2,0,0,1,46,29.49,2.05,2.05,0,0,1,44.46,31.18Z" style="fill:#bcbcbc"/><path d="M60,30.47A2.11,2.11,0,0,1,62.19,30,2,2,0,0,1,60,30.47Z" style="fill:#bcbcbc"/><path d="M46.49,37.38a2.16,2.16,0,0,1-1.89,1.35A2.07,2.07,0,0,1,46.49,37.38Z" style="fill:#bcbcbc"/><path d="M67.5,31a2.07,2.07,0,0,1,2.27.12A2,2,0,0,1,67.5,31Z" style="fill:#bcbcbc"/><path d="M20.37,39.87a2,2,0,0,1-2.28.08A2,2,0,0,1,20.37,39.87Z" style="fill:#bcbcbc"/><path d="M40.09,31.42a2,2,0,0,1-.1,2.25A2,2,0,0,1,40.09,31.42Z" style="fill:#bcbcbc"/><path d="M34.37,21.71a2.11,2.11,0,0,1-1.31-1.87A2,2,0,0,1,34.37,21.71Z" style="fill:#bcbcbc"/><path d="M18.48,35.31a2,2,0,0,1,2,1.07A2.1,2.1,0,0,1,18.48,35.31Z" style="fill:#bcbcbc"/><path d="M43.83,40.6a2.13,2.13,0,0,1,2,1.12A2,2,0,0,1,43.83,40.6Z" style="fill:#bcbcbc"/><path d="M18,44.3a2,2,0,0,1,1.69-1.49A2,2,0,0,1,18,44.3Z" style="fill:#bcbcbc"/><path d="M54.26,24.18a2.11,2.11,0,0,1,2.23-.41A2,2,0,0,1,54.26,24.18Z" style="fill:#bcbcbc"/><path d="M29,41.18a2,2,0,0,1,.82-2.09C30.09,39.58,29.64,40.73,29,41.18Z" style="fill:#bcbcbc"/><path d="M16.81,36.52a2.06,2.06,0,0,1-2.25,0A2,2,0,0,1,16.81,36.52Z" style="fill:#bcbcbc"/><path d="M37.74,31.17a2,2,0,0,1,.71-2.06A1.93,1.93,0,0,1,37.74,31.17Z" style="fill:#bcbcbc"/><path d="M47,34.58a1.9,1.9,0,0,1-2.17.11A2,2,0,0,1,47,34.58Z" style="fill:#bcbcbc"/><path d="M31.71,25.81a2,2,0,0,1-.31-2.14A1.83,1.83,0,0,1,31.71,25.81Z" style="fill:#bcbcbc"/><path d="M33.09,26.26a2,2,0,0,1,.29,2.15A1.9,1.9,0,0,1,33.09,26.26Z" style="fill:#bcbcbc"/><path d="M28.91,20.84a2,2,0,0,1,2.18.27A2,2,0,0,1,28.91,20.84Z" style="fill:#bcbcbc"/><path d="M40.12,20.59a1.29,1.29,0,0,0-.24,1,9.17,9.17,0,0,1-.08,1.65c0,.41-.12.82-.2,1.23l.06-.89a10,10,0,0,0-.23-2.89c-.07-.3-.07-.34.2-.54,0,.07,0,.12,0,.16a.29.29,0,0,0,.1.43c.17.14.26,0,.36-.11l.08,0Z" style="fill:#bcbcbc"/><path d="M42.48,18.48c-.11.13-.21.34-.36.38s-.34-.13-.39-.25a1.74,1.74,0,0,1-.06-.72.34.34,0,0,1,.25-.23.43.43,0,0,1,.33.17A4,4,0,0,1,42.48,18.48Z" style="fill:#bcbcbc"/><path d="M43.36,16.58c0,.32-.22.64-.44.63s-.38-.25-.38-.57S42.72,16,43,16,43.36,16.27,43.36,16.58Z" style="fill:#bcbcbc"/><path d="M44.26,17.61a.8.8,0,0,1-.65.74c-.28,0-.42-.15-.34-.43a.77.77,0,0,1,.71-.6C44.19,17.33,44.26,17.4,44.26,17.61Z" style="fill:#bcbcbc"/><path d="M23.86,22.57l.23,0v-.44h0a9.28,9.28,0,0,1,.4,1.23c.07.34,0,.71,0,1.05s.24.65.31,1a3.36,3.36,0,0,1-.32-.79,1.37,1.37,0,0,0-.92-1.06,1.19,1.19,0,0,1-.2-.08s0-.05-.06-.1a.84.84,0,0,1,.91.4A.79.79,0,0,0,23.86,22.57Z" style="fill:#bcbcbc"/><path d="M58.33,23.57c-.21,0-.34-.13-.27-.31a1.76,1.76,0,0,1,.41-.57.41.41,0,0,1,.36,0c.07,0,.1.22.09.33A.71.71,0,0,1,58.33,23.57Z" style="fill:#bcbcbc"/><path d="M52.81,19.42a.22.22,0,0,1-.16-.34,1.62,1.62,0,0,1,.42-.55.37.37,0,0,1,.34,0c.07,0,.1.2.09.3A.72.72,0,0,1,52.81,19.42Z" style="fill:#bcbcbc"/><path d="M59.89,23.2c0-.07-.18-.17-.2-.29s.34-.59.62-.6.31.05.32.25A.73.73,0,0,1,59.89,23.2Z" style="fill:#bcbcbc"/><path d="M54.32,19.53c.33,0,.55.06.63.34s-.26.36-.56.36a.38.38,0,0,1-.26-.07c-.11-.08-.25-.2-.24-.3s.15-.22.25-.31A.31.31,0,0,1,54.32,19.53Z" style="fill:#bcbcbc"/><path d="M55.21,18.33c0,.42-.42.79-.72.69a.46.46,0,0,1-.21-.34.71.71,0,0,1,.63-.52C55,18.17,55.14,18.29,55.21,18.33Z" style="fill:#bcbcbc"/><path d="M64.67,26.84c0,.42-.43.79-.73.68a.34.34,0,0,1-.2-.29.72.72,0,0,1,.66-.57C64.51,26.68,64.61,26.8,64.67,26.84Z" style="fill:#bcbcbc"/><path d="M62.28,27.93c0-.06-.14-.16-.15-.27a.67.67,0,0,1,.53-.67.37.37,0,0,1,.31.2C63.07,27.47,62.68,27.94,62.28,27.93Z" style="fill:#bcbcbc"/><path d="M63.77,28.74a1.4,1.4,0,0,1-.3-.12.27.27,0,0,1,0-.5.83.83,0,0,1,.36-.08c.3,0,.54.15.55.35S64.16,28.74,63.77,28.74Z" style="fill:#bcbcbc"/><path d="M59.79,23.64c.34,0,.6.21.58.41s-.39.39-.64.31a1,1,0,0,1-.42-.27s0-.22.07-.27A1.7,1.7,0,0,1,59.79,23.64Z" style="fill:#bcbcbc"/><path d="M21.22,25.43l0-.54h0c.11.73.22,1.45.34,2.27l-.4-.45.22.12a5,5,0,0,0-1-2.63c.27.42.54.85.82,1.27Z" style="fill:#bcbcbc"/><path d="M31,38a1.29,1.29,0,0,1-.52-1.18A1.07,1.07,0,0,1,31,38Z" style="fill:#bcbcbc"/><path d="M43,17.69a4.07,4.07,0,0,0-.18.95c0,.62-.44.94-.72,1.38v-.73h0v.58A4,4,0,0,0,43,17.69Z" style="fill:#bcbcbc"/><path d="M27.54,22.63c-.15.13-.21.22-.29.24s-.41-.24-.39-.42a.35.35,0,0,1,.15-.18Z" style="fill:#bcbcbc"/><path d="M43.75,31.6c0,.25-.25.5-.42.46s-.16-.16-.15-.18a2.65,2.65,0,0,1,.41-.41S43.72,31.57,43.75,31.6Z" style="fill:#bcbcbc"/><path d="M50.45,25.29l-.35.4c-.06-.11-.19-.24-.17-.34s.15-.25.24-.38Z" style="fill:#bcbcbc"/><path d="M37.86,29l-.49.42c0-.08-.17-.19-.16-.22a2.41,2.41,0,0,1,.37-.41A2,2,0,0,1,37.86,29Z" style="fill:#bcbcbc"/><path d="M53.19,21.09a1.09,1.09,0,0,1-.45.94A.86.86,0,0,1,53.19,21.09Z" style="fill:#bcbcbc"/><path d="M51.34,24.49l-.43.4c-.06-.09-.19-.2-.17-.25a3.11,3.11,0,0,1,.3-.44Z" style="fill:#bcbcbc"/><path d="M31.81,19.82l.25-.28a3.37,3.37,0,0,1,.33.44s-.12.16-.18.24Z" style="fill:#bcbcbc"/><path d="M28,21.83l-.31.35c-.08-.12-.21-.24-.22-.37s.13-.22.2-.33Z" style="fill:#bcbcbc"/><path d="M55.54,31.53l.36.32c-.11.07-.22.21-.33.21s-.24-.14-.36-.22Z" style="fill:#bcbcbc"/><path d="M46.72,40.29,46.35,40a.89.89,0,0,1,.3-.19c.18,0,.38,0,.38.25S46.86,40.17,46.72,40.29Z" style="fill:#bcbcbc"/><path d="M45.7,39.66l-.32-.28c.13-.09.24-.22.38-.24s.21.12.32.19Z" style="fill:#bcbcbc"/><path d="M27,32.66l-.48.42c-.06-.07-.18-.19-.17-.21a2.86,2.86,0,0,1,.36-.42A1.77,1.77,0,0,1,27,32.66Z" style="fill:#bcbcbc"/><path d="M32,21.28l-.41-.39c.08-.06.19-.18.24-.16a2.85,2.85,0,0,1,.45.25Z" style="fill:#bcbcbc"/><path d="M55.7,31.37c-.11-.15-.23-.27-.22-.28a3,3,0,0,1,.42-.38.73.73,0,0,1,.18.17C56,31,55.86,31.17,55.7,31.37Z" style="fill:#bcbcbc"/><path d="M31.23,40.34c.1.17.21.33.29.5s-.13.12-.19.18a4.7,4.7,0,0,1-.35-.43s.09-.15.14-.23Z" style="fill:#bcbcbc"/><path d="M37,28l.4-.4c0,.09.14.17.15.27s-.07.38-.3.4C37.21,28.28,37.14,28.14,37,28Z" style="fill:#bcbcbc"/><path d="M21.66,44.61l-.38.42c-.07-.09-.21-.21-.19-.26a2.47,2.47,0,0,1,.3-.42Z" style="fill:#bcbcbc"/><path d="M21.42,43.81a2.78,2.78,0,0,1-.47.28s-.14-.09-.21-.15a3,3,0,0,1,.38-.34c.05,0,.18,0,.27.08Z" style="fill:#bcbcbc"/><path d="M55.07,31.14c-.21.16-.35.27-.51.37a1,1,0,0,1-.17-.18,2.81,2.81,0,0,1,.38-.39S54.91,31,55.07,31.14Z" style="fill:#bcbcbc"/><path d="M43.06,31l-.29.31a1.18,1.18,0,0,1-.22-.39c0-.09.11-.2.18-.3Z" style="fill:#bcbcbc"/><path d="M43.93,30.56l-.46.38c-.06-.07-.18-.19-.16-.21a3.54,3.54,0,0,1,.35-.42Z" style="fill:#bcbcbc"/><path d="M27.9,22.84l.31-.35c.08.1.23.21.21.28a1.33,1.33,0,0,1-.27.41Z" style="fill:#bcbcbc"/><path d="M21,36l-.36-.37c.08-.06.19-.19.24-.17a2.49,2.49,0,0,1,.43.29Z" style="fill:#bcbcbc"/><path d="M46.65,34c-.15-.15-.27-.25-.39-.36.09-.06.21-.19.28-.17a1.46,1.46,0,0,1,.41.25Z" style="fill:#bcbcbc"/><path d="M34.25,22a1,1,0,0,1-1,.12C33.5,21.83,33.79,21.79,34.25,22Z" style="fill:#bcbcbc"/><path d="M46,40.83a5,5,0,0,1-.39-.51s.11-.13.17-.2a4.54,4.54,0,0,1,.38.38S46.12,40.65,46,40.83Z" style="fill:#bcbcbc"/><path d="M20.29,34.43l.39.43c-.08.06-.21.18-.24.16a2.79,2.79,0,0,1-.43-.34Z" style="fill:#bcbcbc"/><path d="M15.7,29.12c.29-.17.6-.06.64.23a.28.28,0,0,1-.06.22.22.22,0,0,1-.22,0c-.13-.14-.24-.3-.36-.45Z" style="fill:#bcbcbc"/><path d="M36.93,28.52l-.27.27a2.26,2.26,0,0,1-.28-.43c0-.06.1-.17.16-.25Z" style="fill:#bcbcbc"/><path d="M16.26,30.08l.33.28c-.13.08-.25.21-.39.23s-.2-.12-.31-.19Z" style="fill:#bcbcbc"/><path d="M30.3,22a1,1,0,0,1-1,.36A1,1,0,0,1,30.3,22Z" style="fill:#bcbcbc"/><path d="M31.34,20.34c-.15-.16-.28-.27-.38-.4s.17-.21.19-.2a4.58,4.58,0,0,1,.43.34Z" style="fill:#bcbcbc"/><path d="M30.74,24.7a1.13,1.13,0,0,1-.29,1A.81.81,0,0,1,30.74,24.7Z" style="fill:#bcbcbc"/><path d="M26.1,32.17l-.29.28a2.55,2.55,0,0,1-.27-.4c0-.06.09-.18.14-.26Z" style="fill:#bcbcbc"/><path d="M46.81,33c-.12-.15-.23-.27-.23-.28l.43-.4c.06.07.18.17.16.19S47,32.81,46.81,33Z" style="fill:#bcbcbc"/><path d="M32.39,40l-.34.37c-.08-.08-.22-.19-.2-.24a1.48,1.48,0,0,1,.27-.4Z" style="fill:#bcbcbc"/><path d="M51.13,25.76l-.22-.27a4.58,4.58,0,0,1,.43-.34s.14.11.21.17Z" style="fill:#bcbcbc"/><path d="M28.17,31.6a1.11,1.11,0,0,1-.88.48A.76.76,0,0,1,28.17,31.6Z" style="fill:#bcbcbc"/><path d="M30.17,41.33a1,1,0,0,1-1,.12A.8.8,0,0,1,30.17,41.33Z" style="fill:#bcbcbc"/><path d="M21.84,43.88l.32-.35c.06.11.18.22.17.31a1.25,1.25,0,0,1-.23.38Z" style="fill:#bcbcbc"/><path d="M26.84,31.57l-.39.38c-.06-.09-.16-.18-.16-.28s.06-.37.29-.35C26.65,31.32,26.71,31.45,26.84,31.57Z" style="fill:#bcbcbc"/><path d="M47.59,33.44l-.32-.31c.12-.08.24-.21.36-.21s.22.14.33.22Z" style="fill:#bcbcbc"/><path d="M39.73,33.85a1.14,1.14,0,0,1-.94-.58A1,1,0,0,1,39.73,33.85Z" style="fill:#bcbcbc"/><path d="M47.31,25.13l-.91-.54A.68.68,0,0,1,47.31,25.13Z" style="fill:#bcbcbc"/><path d="M44.2,37.53a1,1,0,0,1,.13,1A.9.9,0,0,1,44.2,37.53Z" style="fill:#bcbcbc"/><path d="M44.54,31.47a1,1,0,0,1,1,.26A1.07,1.07,0,0,1,44.54,31.47Z" style="fill:#bcbcbc"/><path d="M43.58,40.78a1,1,0,0,1,0,1A.82.82,0,0,1,43.58,40.78Z" style="fill:#bcbcbc"/><path d="M31.64,39.64l-.28.25a3.18,3.18,0,0,1-.28-.43s.12-.14.18-.21Z" style="fill:#bcbcbc"/><path d="M21.56,34.72c-.13.12-.21.25-.27.24a.32.32,0,0,1-.29-.4c0-.08.12-.15.18-.23Z" style="fill:#bcbcbc"/><path d="M52.55,26.88l1,0V27a1,1,0,0,1-1,.05Z" style="fill:#bcbcbc"/><path d="M57.35,24.2,58.57,24v0h0l0,0,.09.13-1.3.15Z" style="fill:#bcbcbc"/><path d="M51.93,20l1.43-.17v.06L52,20.08Z" style="fill:#bcbcbc"/><path d="M61.39,28.56l1.18-.21C62.22,28.59,61.78,28.49,61.39,28.56Z" style="fill:#bcbcbc"/><path d="M40.13,20.6a1.29,1.29,0,0,1,.71-.65l-.72.64Z" style="fill:#bcbcbc"/><path d="M42.83,31.67v.88h0v-.88Z" style="fill:#bcbcbc"/></g></g></svg>