<?xml version="1.0" encoding="utf-8"?>
<!-- Generator: Adobe Illustrator 22.0.0, SVG Export Plug-In . SVG Version: 6.00 Build 0)  -->
<svg version="1.1" id="Layer_1" xmlns="http://www.w3.org/2000/svg" xmlns:xlink="http://www.w3.org/1999/xlink" x="0px" y="0px"
	 viewBox="0 0 454.9 366.9" style="enable-background:new 0 0 454.9 366.9;" xml:space="preserve">
<style type="text/css">
	.st0{clip-path:url(#SVGID_2_);}
	.st1{fill:none;stroke:#304595;stroke-miterlimit:10;}
</style>
<title>logo-outline-menu</title>
<g id="Layer_2_1_">
	<g id="Layer_1-2">
		<g>
			<defs>
				<rect id="SVGID_1_" y="-43.8" width="454.9" height="410.6"/>
			</defs>
			<clipPath id="SVGID_2_">
				<use xlink:href="#SVGID_1_"  style="overflow:visible;"/>
			</clipPath>
			<g class="st0">
				<path class="st1" d="M174,123.2L10.8,202.7l22.9,48.4l51-24.8l9.7-4.7l102.5-49.9c5.6-2.8,8-9.6,5.3-15.4l-13.1-27.7
					C186.4,122.9,179.7,120.5,174,123.2z"/>
				<path class="st1" d="M189,243.7l-78.1,38.1l0,0l-51,24.8l22.9,48.6l51-24.8l0-0.1l78.1-38.1c5.5-2.9,7.9-9.6,5.3-15.4
					l-13.1-27.7C201.3,243.5,194.6,241.2,189,243.7z"/>
				<path class="st1" d="M221.2,432.7c-110.1,53.6-242.5,6.3-295.3-105.6s-6.2-246.4,103.9-300s242.6-6.3,295.3,105.6
					S331.2,379.1,221.2,432.7z M41.1,51.1C-56,98.3-97.1,217-50.6,315.6S112.8,456,209.9,408.8s138.2-166,91.7-264.6
					S138.1,3.8,41.1,51.1z"/>
			</g>
		</g>
	</g>
</g>
</svg>
